<?xml version="1.0" encoding="UTF-8"?>
<!-- Generator: Adobe Illustrator 18.0.0, SVG Export Plug-In . SVG Version: 6.00 Build 0)  -->
<!DOCTYPE svg PUBLIC "-//W3C//DTD SVG 1.1//EN" "http://www.w3.org/Graphics/SVG/1.1/DTD/svg11.dtd">
<svg version="1.1" id="Layer_1" xmlns="http://www.w3.org/2000/svg" xmlns:xlink="http://www.w3.org/1999/xlink" x="0px" y="0px" viewBox="0 0 459 459" enable-background="new 0 0 459 459" xml:space="preserve">
<rect x="0" y="0" width="459" height="459" fill="none"/>
<g>
	<circle fill="#079E99" cx="191.311" cy="158.237" r="16.054"/>
	<circle fill="#079E99" cx="229.5" cy="158.237" r="16.054"/>
	<circle fill="#079E99" cx="267.689" cy="158.237" r="16.054"/>
	<circle fill="#079E99" cx="172.217" cy="193.75" r="16.054"/>
	<circle fill="#079E99" cx="286.783" cy="193.75" r="16.054"/>
	<circle fill="#079E99" cx="153.123" cy="229.263" r="16.054"/>
	<circle fill="#079E99" cx="305.877" cy="229.263" r="16.054"/>
	<circle fill="#079E99" cx="172.217" cy="264.776" r="16.054"/>
	<circle fill="#079E99" cx="286.783" cy="264.776" r="16.054"/>
	<circle fill="#079E99" cx="191.311" cy="300.289" r="16.054"/>
	<circle fill="#079E99" cx="229.5" cy="300.289" r="16.054"/>
	<circle fill="#079E99" cx="267.689" cy="300.289" r="16.054"/>
	<circle fill="#065B57" cx="170.656" cy="124.72" r="12.148"/>
	<circle fill="#065B57" cx="209.885" cy="124.72" r="12.148"/>
	<circle fill="#065B57" cx="249.115" cy="124.72" r="12.148"/>
	<circle fill="#065B57" cx="288.344" cy="124.72" r="12.148"/>
	<circle fill="#065B57" cx="151.041" cy="159.647" r="12.148"/>
	<circle fill="#065B57" cx="307.959" cy="159.647" r="12.148"/>
	<circle fill="#065B57" cx="131.427" cy="194.573" r="12.148"/>
	<circle fill="#065B57" cx="327.573" cy="194.573" r="12.148"/>
	<circle fill="#065B57" cx="111.812" cy="229.5" r="12.148"/>
	<circle fill="#065B57" cx="347.188" cy="229.5" r="12.148"/>
	<circle fill="#065B57" cx="131.427" cy="264.427" r="12.148"/>
	<circle fill="#065B57" cx="327.573" cy="264.427" r="12.148"/>
	<circle fill="#065B57" cx="151.041" cy="299.353" r="12.148"/>
	<circle fill="#065B57" cx="307.959" cy="299.353" r="12.148"/>
	<circle fill="#065B57" cx="170.656" cy="334.28" r="12.148"/>
	<circle fill="#065B57" cx="209.885" cy="334.28" r="12.148"/>
	<circle fill="#065B57" cx="249.115" cy="334.28" r="12.148"/>
	<circle fill="#065B57" cx="288.344" cy="334.28" r="12.148"/>
	<circle fill="#053331" cx="153.58" cy="97.386" r="6.454"/>
	<circle fill="#053331" cx="186.981" cy="97.386" r="6.454"/>
	<circle fill="#053331" cx="229.5" cy="97.386" r="6.454"/>
	<circle fill="#053331" cx="272.02" cy="97.386" r="6.454"/>
	<circle fill="#053331" cx="305.42" cy="97.386" r="6.454"/>
	<circle fill="#053331" cx="132.32" cy="130.415" r="6.454"/>
	<circle fill="#053331" cx="326.68" cy="130.415" r="6.454"/>
	<circle fill="#053331" cx="111.06" cy="163.443" r="6.454"/>
	<circle fill="#053331" cx="347.94" cy="163.443" r="6.454"/>
	<circle fill="#053331" cx="89.801" cy="196.472" r="6.454"/>
	<circle fill="#053331" cx="369.2" cy="196.472" r="6.454"/>
	<circle fill="#053331" cx="68.288" cy="229.5" r="6.454"/>
	<circle fill="#053331" cx="390.712" cy="229.5" r="6.454"/>
	<circle fill="#053331" cx="89.801" cy="262.528" r="6.454"/>
	<circle fill="#053331" cx="369.2" cy="262.528" r="6.454"/>
	<circle fill="#053331" cx="111.06" cy="295.557" r="6.454"/>
	<circle fill="#053331" cx="347.94" cy="295.557" r="6.454"/>
	<circle fill="#053331" cx="132.32" cy="328.585" r="6.454"/>
	<circle fill="#053331" cx="326.68" cy="328.585" r="6.454"/>
	<circle fill="#053331" cx="153.58" cy="361.614" r="6.454"/>
	<circle fill="#053331" cx="186.981" cy="361.614" r="6.454"/>
	<circle fill="#053331" cx="229.5" cy="361.614" r="6.454"/>
	<circle fill="#053331" cx="272.02" cy="361.614" r="6.454"/>
	<circle fill="#053331" cx="305.42" cy="361.614" r="6.454"/>
</g>
</svg>