<?xml version="1.0" encoding="UTF-8" standalone="no"?>
<!-- Created with Inkscape (http://www.inkscape.org/) -->

<svg
   xmlns:dc="http://purl.org/dc/elements/1.1/"
   xmlns:cc="http://creativecommons.org/ns#"
   xmlns:rdf="http://www.w3.org/1999/02/22-rdf-syntax-ns#"
   xmlns:svg="http://www.w3.org/2000/svg"
   xmlns="http://www.w3.org/2000/svg"
   xmlns:xlink="http://www.w3.org/1999/xlink"
   xmlns:sodipodi="http://sodipodi.sourceforge.net/DTD/sodipodi-0.dtd"
   xmlns:inkscape="http://www.inkscape.org/namespaces/inkscape"
   width="400"
   height="400"
   viewBox="0 0 400 400.00001"
   id="svg5972"
   version="1.1"
   inkscape:version="0.91 r13725"
   sodipodi:docname="chip-hat-red.svg">
  <defs
     id="defs5974">
    <linearGradient
       inkscape:collect="always"
       id="linearGradient8381">
      <stop
         style="stop-color:#000000;stop-opacity:1;"
         offset="0"
         id="stop8383" />
      <stop
         style="stop-color:#000000;stop-opacity:0;"
         offset="1"
         id="stop8385" />
    </linearGradient>
    <linearGradient
       id="linearGradient7847">
      <stop
         style="stop-color:#000050;stop-opacity:0.43577981;"
         offset="0"
         id="stop7849" />
    </linearGradient>
    <linearGradient
       inkscape:collect="always"
       id="linearGradient8588">
      <stop
         style="stop-color:#ffffff;stop-opacity:1;"
         offset="0"
         id="stop8590" />
      <stop
         style="stop-color:#ffffff;stop-opacity:0;"
         offset="1"
         id="stop8592" />
    </linearGradient>
    <radialGradient
       inkscape:collect="always"
       xlink:href="#linearGradient8381"
       id="radialGradient8389-2-3"
       cx="255.37003"
       cy="235.85107"
       fx="255.37003"
       fy="235.85107"
       r="202"
       gradientUnits="userSpaceOnUse"
       gradientTransform="matrix(0.82269094,-0.00478309,0.00469958,0.80832801,-13.131382,666.80336)" />
    <linearGradient
       inkscape:collect="always"
       xlink:href="#linearGradient7847"
       id="linearGradient5658-1"
       gradientUnits="userSpaceOnUse"
       gradientTransform="matrix(0.96618355,0,0,0.96618355,-153.5103,598.30035)"
       x1="163.38257"
       y1="262.95316"
       x2="568.38257"
       y2="262.95316" />
    <linearGradient
       inkscape:collect="always"
       xlink:href="#linearGradient7847"
       id="linearGradient5654"
       gradientUnits="userSpaceOnUse"
       gradientTransform="matrix(0.96618355,0,0,0.96618355,-153.5103,598.30036)"
       x1="163.38257"
       y1="262.95316"
       x2="568.38257"
       y2="262.95316" />
    <linearGradient
       inkscape:collect="always"
       xlink:href="#linearGradient7847"
       id="linearGradient5652-3"
       gradientUnits="userSpaceOnUse"
       gradientTransform="matrix(0.96618355,0,0,0.96618355,-153.50971,598.30112)"
       x1="163.38257"
       y1="262.95316"
       x2="568.38257"
       y2="262.95316" />
    <linearGradient
       inkscape:collect="always"
       xlink:href="#linearGradient7847"
       id="linearGradient5650-9"
       gradientUnits="userSpaceOnUse"
       gradientTransform="matrix(0.99009901,0,0,0.99009901,-162.25995,592.01253)"
       x1="163.38257"
       y1="262.95316"
       x2="568.38257"
       y2="262.95316" />
    <linearGradient
       inkscape:collect="always"
       xlink:href="#linearGradient7847"
       id="linearGradient5625"
       gradientUnits="userSpaceOnUse"
       gradientTransform="matrix(0.96618355,0,0,0.96618355,-153.50971,598.30117)"
       x1="163.38257"
       y1="262.95316"
       x2="568.38257"
       y2="262.95316" />
    <linearGradient
       inkscape:collect="always"
       xlink:href="#linearGradient7847"
       id="linearGradient5627"
       gradientUnits="userSpaceOnUse"
       gradientTransform="matrix(0.96618355,0,0,0.96618355,-153.50971,598.30121)"
       x1="163.38257"
       y1="262.95316"
       x2="568.38257"
       y2="262.95316" />
    <linearGradient
       inkscape:collect="always"
       xlink:href="#linearGradient7847"
       id="linearGradient5631"
       gradientUnits="userSpaceOnUse"
       gradientTransform="matrix(0.96618355,0,0,0.96618355,-153.50971,598.30121)"
       x1="163.38257"
       y1="262.95316"
       x2="568.38257"
       y2="262.95316" />
    <radialGradient
       inkscape:collect="always"
       xlink:href="#linearGradient8588"
       id="radialGradient8594-6-0-3"
       cx="257.84961"
       cy="231.07617"
       fx="257.84961"
       fy="231.07617"
       r="124.9668"
       gradientTransform="matrix(0.96618355,0,0,0.9661389,372.41492,594.35013)"
       gradientUnits="userSpaceOnUse" />
    <radialGradient
       inkscape:collect="always"
       xlink:href="#linearGradient8381"
       id="radialGradient8616-6-0-1"
       cx="257.78125"
       cy="230.97656"
       fx="257.78125"
       fy="230.97656"
       r="139.88281"
       gradientTransform="matrix(0.96618355,0,0,0.96667002,372.48097,594.3237)"
       gradientUnits="userSpaceOnUse" />
    <linearGradient
       inkscape:collect="always"
       xlink:href="#linearGradient7847"
       id="linearGradient6167"
       gradientUnits="userSpaceOnUse"
       gradientTransform="matrix(0.96618355,0,0,0.96618355,-152.536,597.33605)"
       x1="163.38257"
       y1="262.95316"
       x2="568.38257"
       y2="262.95316" />
    <linearGradient
       inkscape:collect="always"
       xlink:href="#linearGradient7847"
       id="linearGradient6169"
       gradientUnits="userSpaceOnUse"
       gradientTransform="matrix(0.96618355,0,0,0.96618355,-152.53659,597.33529)"
       x1="163.38257"
       y1="262.95316"
       x2="568.38257"
       y2="262.95316" />
    <linearGradient
       inkscape:collect="always"
       xlink:href="#linearGradient7847"
       id="linearGradient6172"
       gradientUnits="userSpaceOnUse"
       gradientTransform="matrix(0.96618355,0,0,0.96618355,-152.53659,597.33528)"
       x1="163.38257"
       y1="262.95316"
       x2="568.38257"
       y2="262.95316" />
    <linearGradient
       y2="262.95316"
       x2="568.38257"
       y1="262.95316"
       x1="163.38257"
       gradientTransform="matrix(0.96618355,0,0,0.96618355,325.92175,254.34152)"
       gradientUnits="userSpaceOnUse"
       id="linearGradient4646"
       xlink:href="#linearGradient7847"
       inkscape:collect="always" />
    <linearGradient
       y2="262.95316"
       x2="568.38257"
       y1="262.95316"
       x1="163.38257"
       gradientTransform="matrix(0.96618355,0,0,0.96618355,325.92175,254.34156)"
       gradientUnits="userSpaceOnUse"
       id="linearGradient4648"
       xlink:href="#linearGradient7847"
       inkscape:collect="always" />
    <linearGradient
       y2="262.95316"
       x2="568.38257"
       y1="262.95316"
       x1="163.38257"
       gradientTransform="matrix(0.96618355,0,0,0.96618355,325.92175,254.34156)"
       gradientUnits="userSpaceOnUse"
       id="linearGradient4652"
       xlink:href="#linearGradient7847"
       inkscape:collect="always" />
    <linearGradient
       inkscape:collect="always"
       xlink:href="#linearGradient8588"
       id="linearGradient5686-5"
       gradientUnits="userSpaceOnUse"
       gradientTransform="matrix(0.76083617,0,0,0.76083617,3.9004223,676.52944)"
       x1="99.171875"
       y1="231.10449"
       x2="416.3125"
       y2="231.10449" />
  </defs>
  <sodipodi:namedview
     id="base"
     pagecolor="#ffffff"
     bordercolor="#666666"
     borderopacity="1.0"
     inkscape:pageopacity="0.0"
     inkscape:pageshadow="2"
     inkscape:zoom="0.5"
     inkscape:cx="228.8524"
     inkscape:cy="286.71659"
     inkscape:document-units="px"
     inkscape:current-layer="layer1"
     showgrid="false"
     units="px"
     inkscape:window-width="1855"
     inkscape:window-height="1056"
     inkscape:window-x="65"
     inkscape:window-y="24"
     inkscape:window-maximized="1" />
  <metadata
     id="metadata5977">
    <rdf:RDF>
      <cc:Work
         rdf:about="">
        <dc:format>image/svg+xml</dc:format>
        <dc:type
           rdf:resource="http://purl.org/dc/dcmitype/StillImage" />
        <dc:title></dc:title>
      </cc:Work>
    </rdf:RDF>
  </metadata>
  <g
     inkscape:label="Capa 1"
     inkscape:groupmode="layer"
     id="layer1"
     transform="translate(0,-652.36216)">
    <circle
       r="200"
       cy="852.36218"
       cx="200"
       id="path6327-5-7-1"
       style="color:#000000;clip-rule:nonzero;display:inline;overflow:visible;visibility:visible;opacity:1;isolation:auto;mix-blend-mode:normal;color-interpolation:sRGB;color-interpolation-filters:linearRGB;solid-color:#000000;solid-opacity:1;fill:#000000;fill-opacity:0.50458715;fill-rule:nonzero;stroke:url(#linearGradient5650-9);stroke-width:0;stroke-linecap:butt;stroke-linejoin:miter;stroke-miterlimit:4;stroke-dasharray:none;stroke-dashoffset:0;stroke-opacity:1;color-rendering:auto;image-rendering:auto;shape-rendering:auto;text-rendering:auto;enable-background:accumulate" />
    <circle
       r="195.16908"
       cy="852.36218"
       cx="200"
       id="path6327-9-9"
       style="color:#000000;clip-rule:nonzero;display:inline;overflow:visible;visibility:visible;opacity:1;isolation:auto;mix-blend-mode:normal;color-interpolation:sRGB;color-interpolation-filters:linearRGB;solid-color:#000000;solid-opacity:1;fill:#f6f4f4;fill-opacity:1;fill-rule:nonzero;stroke:url(#linearGradient5652-3);stroke-width:0;stroke-linecap:butt;stroke-linejoin:miter;stroke-miterlimit:4;stroke-dasharray:none;stroke-dashoffset:0;stroke-opacity:1;color-rendering:auto;image-rendering:auto;shape-rendering:auto;text-rendering:auto;enable-background:accumulate" />
    <g
       id="g4288"
       transform="translate(-420.00095,-0.00284854)">
      <path
         inkscape:connector-curvature="0"
         style="fill:#d90000;fill-opacity:1;stroke-width:0.99900001;stroke-miterlimit:4;stroke-dasharray:none"
         d="m 424.83311,852.28296 41.96294,0 a 153.20774,153.20774 0 0 1 20.74086,-76.40775 L 451.222,754.90978 a 195.16908,195.16908 0 0 0 -26.38889,97.37318 z"
         id="path5477-9-9" />
      <path
         inkscape:connector-curvature="0"
         style="fill:#d90000;fill-opacity:1;stroke-width:0.99900001;stroke-miterlimit:4;stroke-dasharray:none"
         d="m 773.20574,852.28263 a 153.20774,153.20774 0 0 1 0.002,0.0792 153.20774,153.20774 0 0 1 -5.52158,39.57579 153.20774,153.20774 0 0 1 -15.21551,36.89802 l 36.31492,20.96542 a 195.16908,195.16908 0 0 0 19.37084,-47.01841 195.16908,195.16908 0 0 0 7.01238,-50.42082 195.16908,195.16908 0 0 0 -0.004,-0.0792 l -41.95916,0 z"
         id="path5789-4-8" />
      <path
         inkscape:connector-curvature="0"
         style="fill:#d90000;fill-opacity:1;stroke-width:0.99900001;stroke-miterlimit:4;stroke-dasharray:none"
         d="m 522.56673,1021.15 20.96543,-36.31307 a 153.20774,153.20774 0 0 1 -56.08205,-56.02732 l -36.35455,20.98996 a 195.16908,195.16908 0 0 0 71.47117,71.35043 z"
         id="path5555-7-7" />
      <path
         inkscape:connector-curvature="0"
         style="fill:#d90000;fill-opacity:1;stroke-width:0.99900001;stroke-miterlimit:4;stroke-dasharray:none"
         d="m 522.51955,683.48579 20.98808,36.35265 a 153.20774,153.20774 0 0 1 76.42286,-20.68236 l 0,-41.95916 a 195.16908,195.16908 0 0 0 -97.41094,26.28887 z"
         id="path5389-8-2" />
      <path
         inkscape:connector-curvature="0"
         style="fill:#d90000;fill-opacity:1;stroke-width:0.99900001;stroke-miterlimit:4;stroke-dasharray:none"
         d="m 696.52317,984.86901 a 153.20774,153.20774 0 0 1 -76.52287,20.70119 153.20774,153.20774 0 0 1 -0.0699,0 l 0,41.9629 a 195.16908,195.16908 0 0 0 0.0699,0 195.16908,195.16908 0 0 0 97.51095,-26.3096 l -20.98808,-36.35264 z"
         id="path5429-4-8" />
      <path
         inkscape:connector-curvature="0"
         style="fill:#d90000;fill-opacity:1;stroke-width:0.99900001;stroke-miterlimit:4;stroke-dasharray:none"
         d="m 696.49109,719.90261 a 153.20774,153.20774 0 0 1 55.99147,55.89145 l 36.35077,-20.98619 a 195.16908,195.16908 0 0 0 -71.37492,-71.22206 l -20.96732,36.3168 z"
         id="path5585-5-2" />
    </g>
    <path
       id="path6327-8-9-7-9"
       d="M 200,657.19313 A 195.16908,195.16908 0 0 0 4.8309182,852.36219 195.16908,195.16908 0 0 0 200,1047.5312 195.16908,195.16908 0 0 0 395.16908,852.36219 195.16908,195.16908 0 0 0 200,657.19313 Z m -0.0283,41.84593 a 153.20275,153.23093 0 0 1 15.29476,0.76615 153.20275,153.23093 0 0 1 15.14191,2.28903 153.20275,153.23093 0 0 1 14.83808,3.78925 153.20275,153.23093 0 0 1 14.38519,5.25173 153.20275,153.23093 0 0 1 13.78888,6.66328 153.20275,153.23093 0 0 1 13.05668,8.00498 153.20275,153.23093 0 0 1 12.19053,9.26933 153.20275,153.23093 0 0 1 11.20545,10.44119 153.20275,153.23093 0 0 1 10.10531,11.50739 153.20275,153.23093 0 0 1 8.90889,12.45849 153.20275,153.23093 0 0 1 7.62002,13.28502 153.20275,153.23093 0 0 1 6.25566,13.98135 153.20275,153.23093 0 0 1 4.82903,14.53427 153.20275,153.23093 0 0 1 3.35333,14.94566 153.20275,153.23093 0 0 1 1.84557,15.20606 153.20275,153.23093 0 0 1 0.38307,10.83749 153.20275,153.23093 0 0 1 -0.76427,15.29855 153.20275,153.23093 0 0 1 -2.28902,15.14377 153.20275,153.23093 0 0 1 -3.78925,14.84183 153.20275,153.23093 0 0 1 -5.25174,14.38715 153.20275,153.23093 0 0 1 -6.65949,13.79266 153.20275,153.23093 0 0 1 -8.00498,13.05662 153.20275,153.23093 0 0 1 -9.26744,12.1943 153.20275,153.23093 0 0 1 -10.43931,11.2073 153.20275,153.23093 0 0 1 -11.50551,10.10908 153.20275,153.23093 0 0 1 -12.4566,8.90889 153.20275,153.23093 0 0 1 -13.28314,7.62193 153.20275,153.23093 0 0 1 -13.97757,6.25566 153.20275,153.23093 0 0 1 -14.53239,4.82898 153.20275,153.23093 0 0 1 -14.94187,3.35525 153.20275,153.23093 0 0 1 -15.2023,1.8456 153.20275,153.23093 0 0 1 -10.83748,0.3849 153.20275,153.23093 0 0 1 -15.29476,-0.7662 153.20275,153.23093 0 0 1 -15.14193,-2.289 153.20275,153.23093 0 0 1 -14.83808,-3.7892 153.20275,153.23093 0 0 1 -14.38519,-5.25169 153.20275,153.23093 0 0 1 -13.78887,-6.66328 153.20275,153.23093 0 0 1 -13.0567,-8.00503 153.20275,153.23093 0 0 1 -12.19051,-9.26927 153.20275,153.23093 0 0 1 -11.205458,-10.44126 153.20275,153.23093 0 0 1 -10.10719,-11.5073 153.20275,153.23093 0 0 1 -8.907,-12.45855 153.20275,153.23093 0 0 1 -7.620024,-13.28686 153.20275,153.23093 0 0 1 -6.25566,-13.97952 153.20275,153.23093 0 0 1 -4.82903,-14.53613 153.20275,153.23093 0 0 1 -3.35334,-14.94377 153.20275,153.23093 0 0 1 -1.84556,-15.20609 153.20275,153.23093 0 0 1 -0.38308,-10.83932 153.20275,153.23093 0 0 1 0.76427,-15.29665 153.20275,153.23093 0 0 1 2.28903,-15.14568 153.20275,153.23093 0 0 1 3.78925,-14.83998 153.20275,153.23093 0 0 1 5.24985,-14.38707 153.20275,153.23093 0 0 1 6.66138,-13.79265 153.20275,153.23093 0 0 1 8.004984,-13.05858 153.20275,153.23093 0 0 1 9.26743,-12.19239 153.20275,153.23093 0 0 1 10.43932,-11.20735 153.20275,153.23093 0 0 1 11.503618,-10.10908 153.20275,153.23093 0 0 1 12.45659,-8.90889 153.20275,153.23093 0 0 1 13.28503,-7.62191 153.20275,153.23093 0 0 1 13.97758,-6.25566 153.20275,153.23093 0 0 1 14.53238,-4.83092 153.20275,153.23093 0 0 1 14.94187,-3.35333 153.20275,153.23093 0 0 1 15.20231,-1.84557 153.20275,153.23093 0 0 1 10.83749,-0.38496 z"
       style="color:#000000;clip-rule:nonzero;display:inline;overflow:visible;visibility:visible;opacity:1;isolation:auto;mix-blend-mode:normal;color-interpolation:sRGB;color-interpolation-filters:linearRGB;solid-color:#000000;solid-opacity:1;fill:#ffffff;fill-opacity:0;fill-rule:nonzero;stroke:url(#linearGradient5654);stroke-width:0;stroke-linecap:butt;stroke-linejoin:miter;stroke-miterlimit:4;stroke-dasharray:none;stroke-dashoffset:0;stroke-opacity:1;color-rendering:auto;image-rendering:auto;shape-rendering:auto;text-rendering:auto;enable-background:accumulate"
       inkscape:connector-curvature="0" />
    <path
       style="color:#000000;clip-rule:nonzero;display:inline;overflow:visible;visibility:visible;opacity:1;isolation:auto;mix-blend-mode:normal;color-interpolation:sRGB;color-interpolation-filters:linearRGB;solid-color:#000000;solid-opacity:1;fill:url(#radialGradient8389-2-3);fill-opacity:1;fill-rule:nonzero;stroke:url(#linearGradient5658-1);stroke-width:0;stroke-linecap:butt;stroke-linejoin:miter;stroke-miterlimit:4;stroke-dasharray:none;stroke-dashoffset:0;stroke-opacity:1;color-rendering:auto;image-rendering:auto;shape-rendering:auto;text-rendering:auto;enable-background:accumulate"
       d="M 200,657.19312 A 195.16908,195.16908 0 0 0 4.8309182,852.36218 195.16908,195.16908 0 0 0 200,1047.5312 195.16908,195.16908 0 0 0 395.16908,852.36218 195.16908,195.16908 0 0 0 200,657.19312 Z m -0.0283,41.84593 a 153.20275,153.23093 0 0 1 15.29476,0.76615 153.20275,153.23093 0 0 1 15.14191,2.28903 153.20275,153.23093 0 0 1 14.83808,3.78925 153.20275,153.23093 0 0 1 14.38519,5.25173 153.20275,153.23093 0 0 1 13.78888,6.66328 153.20275,153.23093 0 0 1 13.05668,8.00498 153.20275,153.23093 0 0 1 12.19053,9.26933 153.20275,153.23093 0 0 1 11.20545,10.44119 153.20275,153.23093 0 0 1 10.10531,11.5074 153.20275,153.23093 0 0 1 8.90889,12.45849 153.20275,153.23093 0 0 1 7.62002,13.28502 153.20275,153.23093 0 0 1 6.25566,13.98135 153.20275,153.23093 0 0 1 4.82903,14.53427 153.20275,153.23093 0 0 1 3.35333,14.94566 153.20275,153.23093 0 0 1 1.84557,15.20606 153.20275,153.23093 0 0 1 0.38307,10.83748 153.20275,153.23093 0 0 1 -0.76427,15.29855 153.20275,153.23093 0 0 1 -2.28902,15.14377 153.20275,153.23093 0 0 1 -3.78925,14.84183 153.20275,153.23093 0 0 1 -5.25174,14.38715 153.20275,153.23093 0 0 1 -6.65949,13.79266 153.20275,153.23093 0 0 1 -8.00498,13.05662 153.20275,153.23093 0 0 1 -9.26744,12.19434 153.20275,153.23093 0 0 1 -10.43931,11.2073 153.20275,153.23093 0 0 1 -11.50551,10.109 153.20275,153.23093 0 0 1 -12.4566,8.9089 153.20275,153.23093 0 0 1 -13.28314,7.622 153.20275,153.23093 0 0 1 -13.97757,6.2556 153.20275,153.23093 0 0 1 -14.53239,4.8291 153.20275,153.23093 0 0 1 -14.94187,3.35516 153.20275,153.23093 0 0 1 -15.2023,1.8456 153.20275,153.23093 0 0 1 -10.83748,0.3849 153.20275,153.23093 0 0 1 -15.29476,-0.7662 153.20275,153.23093 0 0 1 -15.14193,-2.289 153.20275,153.23093 0 0 1 -14.83808,-3.78926 153.20275,153.23093 0 0 1 -14.38519,-5.2516 153.20275,153.23093 0 0 1 -13.78887,-6.6633 153.20275,153.23093 0 0 1 -13.0567,-8.0051 153.20275,153.23093 0 0 1 -12.19051,-9.2692 153.20275,153.23093 0 0 1 -11.205458,-10.4413 153.20275,153.23093 0 0 1 -10.10719,-11.5073 153.20275,153.23093 0 0 1 -8.907,-12.45843 153.20275,153.23093 0 0 1 -7.620024,-13.28696 153.20275,153.23093 0 0 1 -6.25566,-13.97942 153.20275,153.23093 0 0 1 -4.82903,-14.53623 153.20275,153.23093 0 0 1 -3.35334,-14.94377 153.20275,153.23093 0 0 1 -1.84556,-15.20599 153.20275,153.23093 0 0 1 -0.38307,-10.83942 153.20275,153.23093 0 0 1 0.76426,-15.29664 153.20275,153.23093 0 0 1 2.28903,-15.14568 153.20275,153.23093 0 0 1 3.78925,-14.83998 153.20275,153.23093 0 0 1 5.24985,-14.38707 153.20275,153.23093 0 0 1 6.66138,-13.79265 153.20275,153.23093 0 0 1 8.004994,-13.05858 153.20275,153.23093 0 0 1 9.26743,-12.1924 153.20275,153.23093 0 0 1 10.43931,-11.20735 153.20275,153.23093 0 0 1 11.503618,-10.10908 153.20275,153.23093 0 0 1 12.45659,-8.90889 153.20275,153.23093 0 0 1 13.28503,-7.62191 153.20275,153.23093 0 0 1 13.97758,-6.25566 153.20275,153.23093 0 0 1 14.53238,-4.83092 153.20275,153.23093 0 0 1 14.94187,-3.35333 153.20275,153.23093 0 0 1 15.20231,-1.84557 153.20275,153.23093 0 0 1 10.83749,-0.38496 z"
       id="path6327-8-93-4"
       inkscape:connector-curvature="0" />
    <path
       style="fill:#a80000;fill-opacity:1;fill-rule:evenodd;stroke:none;stroke-width:1px;stroke-linecap:butt;stroke-linejoin:miter;stroke-opacity:1"
       d="m 184.19091,751.25382 c -1.89363,-0.002 -3.72874,0.14115 -5.43168,0.45274 -3.55214,0.44904 -8.60899,4.39758 -14.1265,7.33114 8.59009,-1.63863 16.07529,-1.7157 17.84345,2.06642 6.2805,8.17201 4.12028,18.4947 4.27554,28.57274 -1.7711,14.67905 -9.19978,28.91755 -16.86391,39.62344 l 5.34134,-15.56361 c -6.00973,-3.40714 -12.764,-5.41434 -18.77373,-5.82752 -12.67481,-0.23654 -23.07141,2.11789 -31.78308,6.39034 -20.05822,9.02633 -23.18835,19.33292 -24.720859,26.88014 11.038179,-11.657 17.657809,-15.51809 24.349169,-16.91769 13.9798,-3.16668 23.41683,-0.31389 28.99433,6.01652 3.76375,3.79862 5.15928,8.10856 6.77882,13.55533 0.52603,4.13537 1.55336,7.87274 1.58537,12.00811 7.83388,-7.88135 15.92278,-9.58748 24.72077,-12.59365 10.62565,-3.16599 21.82026,-1.72991 31.97007,-0.56493 8.94402,2.51371 16.7971,5.87898 23.79153,11.84307 5.43434,-10.83968 10.50633,-22.99481 19.70096,-33.83448 8.48509,-10.98037 16.53029,-19.51614 23.0472,-19.549 5.12509,-2.32152 9.65458,-0.43125 14.31132,0.56281 4.19572,0.7904 7.43687,4.20586 8.17937,14.47536 2.17477,-3.27532 4.5037,-6.05487 4.27552,-17.10668 -2.97388,-9.15928 -5.94887,-11.78994 -8.92275,-13.53456 -8.85791,-2.95212 -18.65187,-2.11253 -28.99434,0.94079 -15.94989,2.63983 -41.23377,22.47852 -59.90258,34.28397 l 15.96032,-16.48572 c -4.08583,-12.97084 -8.4632,-23.67401 -16.4655,-35.65466 -3.57002,-6.4621 -7.89842,-10.62398 -12.45284,-14.09945 -4.79283,-1.9601 -11.0064,-3.26577 -16.68731,-3.27097 z m -26.24871,3.64687 c -3.28517,3.5e-4 -5.94792,2.69417 -5.94713,6.01652 3.4e-4,3.32153 2.66277,6.01409 5.94713,6.01444 3.28437,-3.5e-4 5.94679,-2.69291 5.94714,-6.01444 7.9e-4,-3.32235 -2.66196,-6.01617 -5.94714,-6.01652 z m 148.42167,64.81929 c -3.84926,1.3e-4 -6.96969,3.15586 -6.96982,7.04869 1.3e-4,3.89283 3.12055,7.04856 6.96982,7.04869 3.84927,-1.3e-4 6.96969,-3.15586 6.96982,-7.04869 -1.3e-4,-3.89283 -3.12056,-7.04856 -6.96982,-7.04869 z M 96.047648,844.37586 c -4.105455,4.5e-4 -7.433474,3.36613 -7.433916,7.51805 -6.94e-4,4.15273 3.327651,7.51968 7.433916,7.52013 4.107062,7e-4 7.436662,-3.36659 7.435972,-7.52013 -4.4e-4,-4.15274 -3.32971,-7.51875 -7.435972,-7.51805 z"
       id="path3488-6"
       inkscape:connector-curvature="0"
       sodipodi:nodetypes="cccccccccccccccccccccccccccccccccccccccccccc" />
    <path
       style="fill:#530000;fill-opacity:1;fill-rule:evenodd;stroke:none;stroke-width:1px;stroke-linecap:butt;stroke-linejoin:miter;stroke-opacity:1"
       d="m 205.01854,850.66522 c -17.13297,0.0906 -17.73567,0.49012 -22.71251,1.85354 -6.32388,1.49522 -12.32967,4.76543 -19.34253,9.74455 l 1.70857,15.55114 c 6.44686,2.64923 13.09512,4.38189 20.23997,3.85456 7.25155,-0.23415 12.14605,-1.89856 15.90284,-4.2533 2.19822,-0.81316 3.74656,-0.31187 5.25713,0.26583 1.972,1.90705 4.74559,4.06921 15.37713,4.91788 6.12084,0.37993 12.37118,1.4147 17.47997,-3.32289 l 1.82131,-16.8575 c -15.58971,-13.82442 -28.79,-10.43129 -35.73188,-11.75381 z m 14.85345,15.0537 c 4.27403,0.39452 7.98735,1.69634 10.51428,4.91788 -3.08614,2.00846 -6.28997,3.30285 -9.72571,3.18998 -4.82661,0.24907 -8.83378,-0.88307 -12.61712,-2.39249 2.68084,-4.24499 7.06511,-5.33169 11.82855,-5.71537 z m -32.81932,0.0477 c 0.19476,0.29544 8.88841,0.025 11.31951,5.50248 -1.7745,1.48284 -4.36942,3.3031 -12.01442,2.69056 -6.1692,-0.59152 -10.63844,-1.98535 -11.5657,-5.0508 2.22791,-3.17306 8.3751,-3.61378 12.26061,-3.14224 z"
       id="path4328-3-4"
       inkscape:connector-curvature="0"
       sodipodi:nodetypes="ccccccccccccccccccccc" />
    <path
       style="fill:#a80000;fill-opacity:1;fill-rule:evenodd;stroke:none;stroke-width:1px;stroke-linecap:butt;stroke-linejoin:miter;stroke-opacity:1"
       d="m 173.73862,906.36508 c -14.8856,11.26669 -40.0981,15.70991 -63.8957,12.95664 12.55634,7.85415 40.40524,14.83255 62.26572,12.78203 -4.63212,8.5803 -24.27943,16.18212 -24.27943,16.18212 0,0 37.76585,0.45447 52.34548,-14.30237 11.67815,13.72679 51.28309,17.5569 51.28309,17.5569 0,0 -17.61493,-8.90951 -20.61491,-20.18853 19.14838,8.72714 43.93742,-3.95813 67.28415,-13.15803 -27.40787,3.53482 -51.5525,-2.39173 -67.58664,-12.85986 -16.14734,6.19707 -12.01235,20.93753 -29.99396,19.62687 -19.37395,-1.5196 -10.19531,-10.40579 -26.8078,-18.59577 z"
       id="path4350-6-6"
       inkscape:connector-curvature="0"
       sodipodi:nodetypes="ccccccccccc" />
    <g
       transform="matrix(0.65990244,0,0,0.65990244,500.65672,71.83471)"
       id="g4299-3-0" />
    <g
       id="g4875">
      <g
         transform="matrix(1.0052688,0,0,1.0052688,-424.31095,31.95263)"
         id="g5793">
        <g
           id="color-centro-7"
           inkscape:label="#g4274"
           style="fill:#800000"
           transform="translate(1.535075,-34.752435)">
          <path
             inkscape:connector-curvature="0"
             style="fill:#800000;fill-opacity:1;stroke-width:0.99900001;stroke-miterlimit:4;stroke-dasharray:none"
             d="m 739.51054,836.55925 14.36427,-1.89089 a 135.2657,135.2657 0 0 0 -9.04743,-34.08499 l -13.41359,5.5563 a 120.77294,120.77294 0 0 1 8.09675,30.41958 z"
             id="path5549-0-9-7" />
          <path
             inkscape:connector-curvature="0"
             style="fill:#800000;fill-opacity:1;stroke-width:0.99900001;stroke-miterlimit:4;stroke-dasharray:none"
             d="m 731.35906,898.47591 13.37631,5.5411 a 135.2657,135.2657 0 0 0 9.37341,-33.99908 135.2657,135.2657 0 0 0 0.007,-0.079 l -14.36687,-1.89144 a 120.77294,120.77294 0 0 1 -0.009,0.0788 120.77294,120.77294 0 0 1 -8.38096,30.34967 z"
             id="path5510-3-9-5" />
          <path
             inkscape:connector-curvature="0"
             style="fill:#800000;fill-opacity:1;stroke-width:0.99900001;stroke-miterlimit:4;stroke-dasharray:none"
             d="m 602.30857,718.48608 a 135.2657,135.2657 0 0 0 -34.00824,9.01375 l 5.55605,13.41547 a 120.77294,120.77294 0 0 1 30.34283,-8.06309 l -1.89064,-14.36613 z"
             id="path5738-6-6-4" />
          <path
             inkscape:connector-curvature="0"
             style="fill:#800000;fill-opacity:1;stroke-width:0.99900001;stroke-miterlimit:4;stroke-dasharray:none"
             d="m 666.14645,741.01725 5.54109,-13.37631 a 135.2657,135.2657 0 0 0 -34.03153,-9.3872 135.2657,135.2657 0 0 0 -0.0698,-0.005 l -1.89144,14.36689 a 120.77294,120.77294 0 0 1 0.0696,0.007 120.77294,120.77294 0 0 1 30.3821,8.39474 z"
             id="path5391-1-0-8" />
          <path
             inkscape:connector-curvature="0"
             style="fill:#800000;fill-opacity:1;stroke-width:0.99900001;stroke-miterlimit:4;stroke-dasharray:none"
             d="m 568.3586,977.09901 a 135.2657,135.2657 0 0 0 33.91701,9.3607 l 1.89193,-14.37064 a 120.77294,120.77294 0 0 1 -30.26785,-8.36637 l -5.54109,13.37631 z"
             id="path5873-0-2-1" />
          <path
             inkscape:connector-curvature="0"
             style="fill:#800000;fill-opacity:1;stroke-width:0.99900001;stroke-miterlimit:4;stroke-dasharray:none"
             d="m 635.66924,971.89288 1.89089,14.36427 a 135.2657,135.2657 0 0 0 34.17416,-9.04521 l -5.55792,-13.41571 a 120.77294,120.77294 0 0 1 -30.50713,8.09665 z"
             id="path5432-6-7-2" />
          <path
             inkscape:connector-curvature="0"
             style="fill:#800000;fill-opacity:1;stroke-width:0.99900001;stroke-miterlimit:4;stroke-dasharray:none"
             d="m 495.26996,800.70043 a 135.2657,135.2657 0 0 0 -9.36593,33.92774 l 14.37064,1.89192 a 120.77294,120.77294 0 0 1 8.37346,-30.27832 l -13.37817,-5.54134 z"
             id="path5798-3-6-8" />
          <path
             inkscape:connector-curvature="0"
             style="fill:#800000;fill-opacity:1;stroke-width:0.99900001;stroke-miterlimit:4;stroke-dasharray:none"
             d="m 537.8636,745.29766 a 135.2657,135.2657 0 0 0 -25.02055,24.83005 l 11.50124,8.82496 a 120.77294,120.77294 0 0 1 22.34099,-22.15836 l -8.82168,-11.49665 z"
             id="path5777-2-1-9" />
          <path
             inkscape:connector-curvature="0"
             style="fill:#800000;fill-opacity:1;stroke-width:0.99900001;stroke-miterlimit:4;stroke-dasharray:none"
             d="m 486.10488,869.92578 a 135.2657,135.2657 0 0 0 9.01252,34.08992 l 13.41757,-5.55767 a 120.77294,120.77294 0 0 1 -8.06184,-30.42451 l -14.36825,1.89226 z"
             id="path5819-0-3-3" />
          <path
             inkscape:connector-curvature="0"
             style="fill:#800000;fill-opacity:1;stroke-width:0.99900001;stroke-miterlimit:4;stroke-dasharray:none"
             d="m 512.90926,934.46878 a 135.2657,135.2657 0 0 0 24.87425,25.06062 l 8.82473,-11.49935 a 120.77294,120.77294 0 0 1 -22.20022,-22.38458 l -11.49876,8.82331 z"
             id="path5843-61-2-6" />
          <path
             inkscape:connector-curvature="0"
             style="fill:#800000;fill-opacity:1;stroke-width:0.99900001;stroke-miterlimit:4;stroke-dasharray:none"
             d="m 715.52758,778.99427 11.49665,-8.82168 a 135.2657,135.2657 0 0 0 -24.78406,-24.96502 l -8.82708,11.50286 a 120.77294,120.77294 0 0 1 22.11449,22.28384 z"
             id="path5588-5-1-8" />
          <path
             inkscape:connector-curvature="0"
             style="fill:#800000;fill-opacity:1;stroke-width:0.99900001;stroke-miterlimit:4;stroke-dasharray:none"
             d="m 693.33648,947.91388 8.82332,11.49876 a 135.2657,135.2657 0 0 0 25.00695,-24.82803 l -11.50123,-8.82497 a 120.77294,120.77294 0 0 1 -22.32904,22.15424 z"
             id="path5471-54-5-0" />
        </g>
        <path
           inkscape:connector-curvature="0"
           style="color:#000000;clip-rule:nonzero;display:inline;overflow:visible;visibility:visible;opacity:1;isolation:auto;mix-blend-mode:normal;color-interpolation:sRGB;color-interpolation-filters:linearRGB;solid-color:#000000;solid-opacity:1;fill:url(#radialGradient8594-6-0-3);fill-opacity:1;fill-rule:nonzero;stroke:#000000;stroke-width:0;stroke-linecap:butt;stroke-linejoin:miter;stroke-miterlimit:4;stroke-dasharray:none;stroke-dashoffset:0;stroke-opacity:1;color-rendering:auto;image-rendering:auto;shape-rendering:auto;text-rendering:auto;enable-background:accumulate"
           d="m 621.54498,696.8666 a 120.81378,120.66119 43.99951 0 0 -8.54091,0.29251 120.81378,120.66119 43.99951 0 0 -11.98105,1.43795 120.81378,120.66119 43.99951 0 0 -11.77537,2.62869 120.81378,120.66119 43.99951 0 0 -11.45456,3.79114 120.81378,120.66119 43.99951 0 0 -11.01486,4.91584 120.81378,120.66119 43.99951 0 0 -10.46952,5.99147 120.81378,120.66119 43.99951 0 0 -9.81658,7.00861 120.81378,120.66119 43.99951 0 0 -9.0674,7.95214 120.81378,120.66119 43.99951 0 0 -8.22766,8.82019 120.81378,120.66119 43.99951 0 0 -7.30299,9.59769 120.81378,120.66119 43.99951 0 0 -6.3085,10.28079 120.81378,120.66119 43.99951 0 0 -5.24984,10.86202 120.81378,120.66119 43.99951 0 0 -4.13837,11.33001 120.81378,120.66119 43.99951 0 0 -2.98535,11.69044 120.81378,120.66119 43.99951 0 0 -1.80405,11.93011 120.81378,120.66119 43.99951 0 0 -0.60386,12.05279 120.81378,120.66119 43.99951 0 0 0.30382,8.54087 120.81378,120.66119 43.99951 0 0 1.45305,11.98299 120.81378,120.66119 43.99951 0 0 2.64379,11.77913 120.81378,120.66119 43.99951 0 0 3.80624,11.45643 120.81378,120.66119 43.99951 0 0 4.92905,11.02241 120.81378,120.66119 43.99951 0 0 6.00467,10.47517 120.81378,120.66119 43.99951 0 0 7.02182,9.82599 120.81378,120.66119 43.99951 0 0 7.96535,9.07681 120.81378,120.66119 43.99951 0 0 8.82963,8.2371 120.81378,120.66119 43.99951 0 0 9.609,7.3162 120.81378,120.66119 43.99951 0 0 10.28834,6.32174 120.81378,120.66119 43.99951 0 0 10.86768,5.26299 120.81378,120.66119 43.99951 0 0 11.33756,4.15159 120.81378,120.66119 43.99951 0 0 11.69423,3.00049 120.81378,120.66119 43.99951 0 0 11.93199,1.81913 120.81378,120.66119 43.99951 0 0 12.05465,0.61894 120.81378,120.66119 43.99951 0 0 8.54091,-0.29247 120.81378,120.66119 43.99951 0 0 11.98105,-1.4399 120.81378,120.66119 43.99951 0 0 11.77536,-2.62677 120.81378,120.66119 43.99951 0 0 11.45456,-3.79111 120.81378,120.66119 43.99951 0 0 11.01487,-4.91584 120.81378,120.66119 43.99951 0 0 10.46951,-5.9915 120.81378,120.66119 43.99951 0 0 9.81658,-7.00856 120.81378,120.66119 43.99951 0 0 9.0674,-7.95401 120.81378,120.66119 43.99951 0 0 8.22766,-8.81836 120.81378,120.66119 43.99951 0 0 7.30299,-9.59951 120.81378,120.66119 43.99951 0 0 6.3085,-10.28087 120.81378,120.66119 43.99951 0 0 5.24984,-10.8601 120.81378,120.66119 43.99951 0 0 4.13837,-11.33188 120.81378,120.66119 43.99951 0 0 2.98535,-11.6886 120.81378,120.66119 43.99951 0 0 1.80405,-11.93005 120.81378,120.66119 43.99951 0 0 0.60386,-12.05275 120.81378,120.66119 43.99951 0 0 -0.30381,-8.54094 120.81378,120.66119 43.99951 0 0 -1.45305,-11.98294 120.81378,120.66119 43.99951 0 0 -2.64379,-11.77914 120.81378,120.66119 43.99951 0 0 -3.80623,-11.45644 120.81378,120.66119 43.99951 0 0 -4.92906,-11.02241 120.81378,120.66119 43.99951 0 0 -6.00657,-10.47706 120.81378,120.66119 43.99951 0 0 -7.01993,-9.82412 120.81378,120.66119 43.99951 0 0 -7.96535,-9.07684 120.81378,120.66119 43.99951 0 0 -8.82962,-8.23709 120.81378,120.66119 43.99951 0 0 -9.60901,-7.31621 120.81378,120.66119 43.99951 0 0 -10.28835,-6.32171 120.81378,120.66119 43.99951 0 0 -10.86767,-5.26305 120.81378,120.66119 43.99951 0 0 -11.33755,-4.15158 120.81378,120.66119 43.99951 0 0 -11.69423,-3.00045 120.81378,120.66119 43.99951 0 0 -11.93199,-1.81914 120.81378,120.66119 43.99951 0 0 -12.05464,-0.61897 z"
           id="path8578-6-1-0" />
        <path
           inkscape:connector-curvature="0"
           style="color:#000000;clip-rule:nonzero;display:inline;overflow:visible;visibility:visible;opacity:1;isolation:auto;mix-blend-mode:normal;color-interpolation:sRGB;color-interpolation-filters:linearRGB;solid-color:#000000;solid-opacity:1;fill:url(#radialGradient8616-6-0-1);fill-opacity:1;fill-rule:evenodd;stroke:#000000;stroke-width:0;stroke-linecap:butt;stroke-linejoin:miter;stroke-miterlimit:4;stroke-dasharray:none;stroke-dashoffset:0;stroke-opacity:1;color-rendering:auto;image-rendering:auto;shape-rendering:auto;text-rendering:auto;enable-background:accumulate"
           d="m 621.54498,682.3814 a 135.27849,135.09457 55.904373 0 0 -9.55993,0.32647 135.27849,135.09457 55.904373 0 0 -13.41146,1.61156 135.27849,135.09457 55.904373 0 0 -13.18125,2.94384 135.27849,135.09457 55.904373 0 0 -12.8208,4.24593 135.27849,135.09457 55.904373 0 0 -12.33016,5.50461 135.27849,135.09457 55.904373 0 0 -11.71876,6.71233 135.27849,135.09457 55.904373 0 0 -10.98844,7.84836 135.27849,135.09457 55.904373 0 0 -10.15059,8.907 135.27849,135.09457 55.904373 0 0 -9.20894,9.87885 135.27849,135.09457 55.904373 0 0 -8.17481,10.74879 135.27849,135.09457 55.904373 0 0 -7.06144,11.51495 135.27849,135.09457 55.904373 0 0 -5.87636,12.16221 135.27849,135.09457 55.904373 0 0 -4.63278,12.69248 135.27849,135.09457 55.904373 0 0 -3.34201,13.09066 135.27849,135.09457 55.904373 0 0 -2.01917,13.36239 135.27849,135.09457 55.904373 0 0 -0.67557,13.49831 135.27849,135.09457 55.904373 0 0 0.33967,9.5655 135.27849,135.09457 55.904373 0 0 1.62855,13.42097 135.27849,135.09457 55.904373 0 0 2.95704,13.19256 135.27849,135.09457 55.904373 0 0 4.26103,12.83208 135.27849,135.09457 55.904373 0 0 5.51781,12.34338 135.27849,135.09457 55.904373 0 0 6.72177,11.73381 135.27849,135.09457 55.904373 0 0 7.85967,11.00358 135.27849,135.09457 55.904373 0 0 8.91456,10.1657 135.27849,135.09457 55.904373 0 0 9.88639,9.22585 135.27849,135.09457 55.904373 0 0 10.75445,8.19372 135.27849,135.09457 55.904373 0 0 11.51684,7.08029 135.27849,135.09457 55.904373 0 0 12.16409,5.89333 135.27849,135.09457 55.904373 0 0 12.6906,4.6517 135.27849,135.09457 55.904373 0 0 13.09066,3.36086 135.27849,135.09457 55.904373 0 0 13.35674,2.03614 135.27849,135.09457 55.904373 0 0 13.4926,0.69256 135.27849,135.09457 55.904373 0 0 9.56182,-0.32647 135.27849,135.09457 55.904373 0 0 13.40957,-1.6115 135.27849,135.09457 55.904373 0 0 13.18312,-2.94387 135.27849,135.09457 55.904373 0 0 12.81892,-4.24599 135.27849,135.09457 55.904373 0 0 12.33205,-5.50647 135.27849,135.09457 55.904373 0 0 11.71875,-6.71043 135.27849,135.09457 55.904373 0 0 10.98845,-7.84831 135.27849,135.09457 55.904373 0 0 10.1487,-8.90702 135.27849,135.09457 55.904373 0 0 9.20894,-9.87884 135.27849,135.09457 55.904373 0 0 8.1767,-10.74879 135.27849,135.09457 55.904373 0 0 7.06145,-11.51497 135.27849,135.09457 55.904373 0 0 5.87636,-12.16223 135.27849,135.09457 55.904373 0 0 4.63277,-12.69246 135.27849,135.09457 55.904373 0 0 3.34201,-13.09063 135.27849,135.09457 55.904373 0 0 2.01918,-13.36241 135.27849,135.09457 55.904373 0 0 0.67368,-13.5001 135.27849,135.09457 55.904373 0 0 -0.33779,-9.56562 135.27849,135.09457 55.904373 0 0 -1.62854,-13.41901 135.27849,135.09457 55.904373 0 0 -2.95894,-13.19256 135.27849,135.09457 55.904373 0 0 -4.25914,-12.83212 135.27849,135.09457 55.904373 0 0 -5.5178,-12.34337 135.27849,135.09457 55.904373 0 0 -6.72178,-11.73385 135.27849,135.09457 55.904373 0 0 -7.85967,-11.00354 135.27849,135.09457 55.904373 0 0 -8.91645,-10.16568 135.27849,135.09457 55.904373 0 0 -9.88451,-9.22593 135.27849,135.09457 55.904373 0 0 -10.75445,-8.19369 135.27849,135.09457 55.904373 0 0 -11.51683,-7.08032 135.27849,135.09457 55.904373 0 0 -12.1641,-5.89334 135.27849,135.09457 55.904373 0 0 -12.6906,-4.65165 135.27849,135.09457 55.904373 0 0 -13.09064,-3.36088 135.27849,135.09457 55.904373 0 0 -13.35863,-2.03616 135.27849,135.09457 55.904373 0 0 -13.4926,-0.69256 z m 0.0661,14.58145 a 120.81378,120.66119 43.99951 0 1 12.05464,0.61897 120.81378,120.66119 43.99951 0 1 11.93199,1.81914 120.81378,120.66119 43.99951 0 1 11.69423,3.00045 120.81378,120.66119 43.99951 0 1 11.33755,4.15158 120.81378,120.66119 43.99951 0 1 10.86768,5.26305 120.81378,120.66119 43.99951 0 1 10.28835,6.32171 120.81378,120.66119 43.99951 0 1 9.60899,7.3162 120.81378,120.66119 43.99951 0 1 8.82964,8.2371 120.81378,120.66119 43.99951 0 1 7.96535,9.07684 120.81378,120.66119 43.99951 0 1 7.01993,9.82412 120.81378,120.66119 43.99951 0 1 6.00656,10.47705 120.81378,120.66119 43.99951 0 1 4.92905,11.02242 120.81378,120.66119 43.99951 0 1 3.80624,11.45644 120.81378,120.66119 43.99951 0 1 2.64379,11.77914 120.81378,120.66119 43.99951 0 1 1.45305,11.98294 120.81378,120.66119 43.99951 0 1 0.30382,8.54091 120.81378,120.66119 43.99951 0 1 -0.60386,12.05275 120.81378,120.66119 43.99951 0 1 -1.80405,11.93015 120.81378,120.66119 43.99951 0 1 -2.98535,11.6885 120.81378,120.66119 43.99951 0 1 -4.13837,11.33188 120.81378,120.66119 43.99951 0 1 -5.24985,10.86019 120.81378,120.66119 43.99951 0 1 -6.3085,10.28078 120.81378,120.66119 43.99951 0 1 -7.30298,9.59951 120.81378,120.66119 43.99951 0 1 -8.22766,8.81836 120.81378,120.66119 43.99951 0 1 -9.06741,7.95401 120.81378,120.66119 43.99951 0 1 -9.81657,7.00856 120.81378,120.66119 43.99951 0 1 -10.46951,5.9915 120.81378,120.66119 43.99951 0 1 -11.01487,4.91584 120.81378,120.66119 43.99951 0 1 -11.45456,3.79111 120.81378,120.66119 43.99951 0 1 -11.77536,2.62686 120.81378,120.66119 43.99951 0 1 -11.98106,1.43981 120.81378,120.66119 43.99951 0 1 -8.5409,0.29247 120.81378,120.66119 43.99951 0 1 -12.05465,-0.61894 120.81378,120.66119 43.99951 0 1 -11.93199,-1.81913 120.81378,120.66119 43.99951 0 1 -11.69423,-3.00049 120.81378,120.66119 43.99951 0 1 -11.33756,-4.15149 120.81378,120.66119 43.99951 0 1 -10.86768,-5.26309 120.81378,120.66119 43.99951 0 1 -10.28835,-6.32174 120.81378,120.66119 43.99951 0 1 -9.60899,-7.3161 120.81378,120.66119 43.99951 0 1 -8.82963,-8.2371 120.81378,120.66119 43.99951 0 1 -7.96536,-9.07691 120.81378,120.66119 43.99951 0 1 -7.02181,-9.82599 120.81378,120.66119 43.99951 0 1 -6.00467,-10.47517 120.81378,120.66119 43.99951 0 1 -4.92906,-11.02241 120.81378,120.66119 43.99951 0 1 -3.80623,-11.45643 120.81378,120.66119 43.99951 0 1 -2.64379,-11.77913 120.81378,120.66119 43.99951 0 1 -1.45305,-11.98299 120.81378,120.66119 43.99951 0 1 -0.30382,-8.54087 120.81378,120.66119 43.99951 0 1 0.60386,-12.05277 120.81378,120.66119 43.99951 0 1 1.80405,-11.9301 120.81378,120.66119 43.99951 0 1 2.98535,-11.69045 120.81378,120.66119 43.99951 0 1 4.13837,-11.33 120.81378,120.66119 43.99951 0 1 5.24984,-10.86202 120.81378,120.66119 43.99951 0 1 6.3085,-10.2808 120.81378,120.66119 43.99951 0 1 7.30299,-9.59768 120.81378,120.66119 43.99951 0 1 8.22766,-8.82019 120.81378,120.66119 43.99951 0 1 9.0674,-7.95214 120.81378,120.66119 43.99951 0 1 9.81658,-7.00861 120.81378,120.66119 43.99951 0 1 10.4695,-5.99147 120.81378,120.66119 43.99951 0 1 11.01487,-4.91584 120.81378,120.66119 43.99951 0 1 11.45456,-3.79114 120.81378,120.66119 43.99951 0 1 11.77538,-2.62869 120.81378,120.66119 43.99951 0 1 11.98105,-1.43795 120.81378,120.66119 43.99951 0 1 8.54091,-0.29251 z"
           id="path8569-7-9-1" />
      </g>
      <path
         id="path8555-5-9-1-3"
         d="M 199.99999,731.74065 A 120.64622,120.62173 0 0 0 79.353972,852.36294 120.64622,120.62173 0 0 0 199.99999,972.98366 120.64622,120.62173 0 0 0 320.64603,852.36294 120.64622,120.62173 0 0 0 199.99999,731.74065 Z m 0.0297,14.04271 a 106.52714,106.38231 55.904373 0 1 10.62495,0.54535 106.52714,106.38231 55.904373 0 1 10.51946,1.6034 106.52714,106.38231 55.904373 0 1 10.30843,2.64656 106.52714,106.38231 55.904373 0 1 9.99341,3.66301 106.52714,106.38231 55.904373 0 1 9.57881,4.64082 106.52714,106.38231 55.904373 0 1 9.0691,5.57553 106.52714,106.38231 55.904373 0 1 8.46876,6.45218 106.52714,106.38231 55.904373 0 1 7.78372,7.26514 106.52714,106.38231 55.904373 0 1 7.02139,8.00508 106.52714,106.38231 55.904373 0 1 6.18923,8.66495 106.52714,106.38231 55.904373 0 1 5.29316,9.23993 106.52714,106.38231 55.904373 0 1 4.34508,9.71997 106.52714,106.38231 55.904373 0 1 3.35392,10.1049 106.52714,106.38231 55.904373 0 1 2.33007,10.38874 106.52714,106.38231 55.904373 0 1 1.28242,10.56703 106.52714,106.38231 55.904373 0 1 0.266,7.53257 106.52714,106.38231 55.904373 0 1 -0.53051,10.63088 106.52714,106.38231 55.904373 0 1 -1.59003,10.52245 106.52714,106.38231 55.904373 0 1 -2.63172,10.3084 106.52714,106.38231 55.904373 0 1 -3.64815,9.99491 106.52714,106.38231 55.904373 0 1 -4.62742,9.57735 106.52714,106.38231 55.904373 0 1 -5.56066,9.06769 106.52714,106.38231 55.904373 0 1 -6.43887,8.46424 106.52714,106.38231 55.904373 0 1 -7.25172,7.77925 106.52714,106.38231 55.904373 0 1 -7.99173,7.01392 106.52714,106.38231 55.904373 0 1 -8.65304,6.1803 106.52714,106.38231 55.904373 0 1 -9.22812,5.28421 106.52714,106.38231 55.904373 0 1 -9.71106,4.33623 106.52714,106.38231 55.904373 0 1 -10.09445,3.34349 106.52714,106.38231 55.904373 0 1 -10.38125,2.31815 106.52714,106.38231 55.904373 0 1 -10.55958,1.26916 106.52714,106.38231 55.904373 0 1 -7.5296,0.25706 106.52714,106.38231 55.904373 0 1 -10.62495,-0.54543 106.52714,106.38231 55.904373 0 1 -10.51797,-1.60342 106.52714,106.38231 55.904373 0 1 -10.30845,-2.64664 106.52714,106.38231 55.904373 0 1 -9.99341,-3.66292 106.52714,106.38231 55.904373 0 1 -9.5788,-4.64083 106.52714,106.38231 55.904373 0 1 -9.06912,-5.57546 106.52714,106.38231 55.904373 0 1 -8.46875,-6.45218 106.52714,106.38231 55.904373 0 1 -7.7852,-7.26513 106.52714,106.38231 55.904373 0 1 -7.0199,-8.00509 106.52714,106.38231 55.904373 0 1 -6.18921,-8.66495 106.52714,106.38231 55.904373 0 1 -5.29317,-9.23996 106.52714,106.38231 55.904373 0 1 -4.34508,-9.72006 106.52714,106.38231 55.904373 0 1 -3.355407,-10.1048 106.52714,106.38231 55.904373 0 1 -2.32857,-10.38874 106.52714,106.38231 55.904373 0 1 -1.28243,-10.56852 106.52714,106.38231 55.904373 0 1 -0.26748,-7.53257 106.52714,106.38231 55.904373 0 1 0.532,-10.62938 106.52714,106.38231 55.904373 0 1 1.59001,-10.52247 106.52714,106.38231 55.904373 0 1 2.63173,-10.30849 106.52714,106.38231 55.904373 0 1 3.648157,-9.99491 106.52714,106.38231 55.904373 0 1 4.62742,-9.57726 106.52714,106.38231 55.904373 0 1 5.56065,-9.06766 106.52714,106.38231 55.904373 0 1 6.43737,-8.46424 106.52714,106.38231 55.904373 0 1 7.25173,-7.77925 106.52714,106.38231 55.904373 0 1 7.99322,-7.01401 106.52714,106.38231 55.904373 0 1 8.65303,-6.1803 106.52714,106.38231 55.904373 0 1 9.22811,-5.28566 106.52714,106.38231 55.904373 0 1 9.70958,-4.33466 106.52714,106.38231 55.904373 0 1 10.09593,-3.34359 106.52714,106.38231 55.904373 0 1 10.37979,-2.31814 106.52714,106.38231 55.904373 0 1 10.56105,-1.26907 106.52714,106.38231 55.904373 0 1 7.52812,-0.25706 z"
         style="color:#000000;clip-rule:nonzero;display:inline;overflow:visible;visibility:visible;opacity:1;isolation:auto;mix-blend-mode:normal;color-interpolation:sRGB;color-interpolation-filters:linearRGB;solid-color:#000000;solid-opacity:1;fill:url(#linearGradient5686-5);fill-opacity:1;fill-rule:nonzero;stroke:none;stroke-width:0;stroke-linecap:butt;stroke-linejoin:miter;stroke-miterlimit:4;stroke-dasharray:none;stroke-dashoffset:0;stroke-opacity:0.43558284;color-rendering:auto;image-rendering:auto;shape-rendering:auto;text-rendering:auto;enable-background:accumulate"
         inkscape:connector-curvature="0" />
    </g>
    <g
       id="g4870">
      <path
         style="fill:#a80000;fill-opacity:1;fill-rule:evenodd;stroke:none;stroke-width:1px;stroke-linecap:butt;stroke-linejoin:miter;stroke-opacity:1"
         d="m 184.19091,751.25382 c -1.89363,-0.002 -3.72874,0.14115 -5.43168,0.45274 -3.55214,0.44904 -8.60899,4.39758 -14.1265,7.33114 8.59009,-1.63863 16.07529,-1.7157 17.84345,2.06642 6.2805,8.17201 4.12028,18.4947 4.27554,28.57274 -1.7711,14.67905 -9.19978,28.91755 -16.86391,39.62344 l 5.34134,-15.56361 c -6.00973,-3.40714 -12.764,-5.41434 -18.77373,-5.82752 -12.67481,-0.23654 -23.07141,2.11789 -31.78308,6.39034 -20.05822,9.02633 -23.18835,19.33292 -24.720859,26.88014 11.038179,-11.657 17.657809,-15.51809 24.349169,-16.91769 13.9798,-3.16668 23.41683,-0.31389 28.99433,6.01652 3.76375,3.79862 5.15928,8.10856 6.77882,13.55533 0.52603,4.13537 1.55336,7.87274 1.58537,12.00811 7.83388,-7.88135 15.92278,-9.58748 24.72077,-12.59365 10.62565,-3.16599 21.82026,-1.72991 31.97007,-0.56493 8.94402,2.51371 16.7971,5.87898 23.79153,11.84307 5.43434,-10.83968 10.50633,-22.99481 19.70096,-33.83448 8.48509,-10.98037 16.53029,-19.51614 23.0472,-19.549 5.12509,-2.32152 9.65458,-0.43125 14.31132,0.56281 4.19572,0.7904 7.43687,4.20586 8.17937,14.47536 2.17477,-3.27532 4.5037,-6.05487 4.27552,-17.10668 -2.97388,-9.15928 -5.94887,-11.78994 -8.92275,-13.53456 -8.85791,-2.95212 -18.65187,-2.11253 -28.99434,0.94079 -15.94989,2.63983 -41.23377,22.47852 -59.90258,34.28397 l 15.96032,-16.48572 c -4.08583,-12.97084 -8.4632,-23.67401 -16.4655,-35.65466 -3.57002,-6.4621 -7.89842,-10.62398 -12.45284,-14.09945 -4.79283,-1.9601 -11.0064,-3.26577 -16.68731,-3.27097 z m -26.24871,3.64687 c -3.28517,3.5e-4 -5.94792,2.69417 -5.94713,6.01652 3.4e-4,3.32153 2.66277,6.01409 5.94713,6.01444 3.28437,-3.5e-4 5.94679,-2.69291 5.94714,-6.01444 7.9e-4,-3.32235 -2.66196,-6.01617 -5.94714,-6.01652 z m 148.42167,64.81929 c -3.84926,1.3e-4 -6.96969,3.15586 -6.96982,7.04869 1.3e-4,3.89283 3.12055,7.04856 6.96982,7.04869 3.84927,-1.3e-4 6.96969,-3.15586 6.96982,-7.04869 -1.3e-4,-3.89283 -3.12056,-7.04856 -6.96982,-7.04869 z M 96.047648,844.37586 c -4.105455,4.5e-4 -7.433474,3.36613 -7.433916,7.51805 -6.94e-4,4.15273 3.327651,7.51968 7.433916,7.52013 4.107062,7e-4 7.436662,-3.36659 7.435972,-7.52013 -4.4e-4,-4.15274 -3.32971,-7.51875 -7.435972,-7.51805 z"
         id="path4816"
         inkscape:connector-curvature="0"
         sodipodi:nodetypes="cccccccccccccccccccccccccccccccccccccccccccc" />
      <path
         style="fill:#530000;fill-opacity:1;fill-rule:evenodd;stroke:none;stroke-width:1px;stroke-linecap:butt;stroke-linejoin:miter;stroke-opacity:1"
         d="m 205.01854,850.66522 c -17.13297,0.0906 -17.73567,0.49012 -22.71251,1.85354 -6.32388,1.49522 -12.32967,4.76543 -19.34253,9.74455 l 1.70857,15.55114 c 6.44686,2.64923 13.09512,4.38189 20.23997,3.85456 7.25155,-0.23415 12.14605,-1.89856 15.90284,-4.2533 2.19822,-0.81316 3.74656,-0.31187 5.25713,0.26583 1.972,1.90705 4.74559,4.06921 15.37713,4.91788 6.12084,0.37993 12.37118,1.4147 17.47997,-3.32289 l 1.82131,-16.8575 c -15.58971,-13.82442 -28.79,-10.43129 -35.73188,-11.75381 z m 14.85345,15.0537 c 4.27403,0.39452 7.98735,1.69634 10.51428,4.91788 -3.08614,2.00846 -6.28997,3.30285 -9.72571,3.18998 -4.82661,0.24907 -8.83378,-0.88307 -12.61712,-2.39249 2.68084,-4.24499 7.06511,-5.33169 11.82855,-5.71537 z m -32.81932,0.0477 c 0.19476,0.29544 8.88841,0.025 11.31951,5.50248 -1.7745,1.48284 -4.36942,3.3031 -12.01442,2.69056 -6.1692,-0.59152 -10.63844,-1.98535 -11.5657,-5.0508 2.22791,-3.17306 8.3751,-3.61378 12.26061,-3.14224 z"
         id="path4818"
         inkscape:connector-curvature="0"
         sodipodi:nodetypes="ccccccccccccccccccccc" />
      <path
         style="fill:#a80000;fill-opacity:1;fill-rule:evenodd;stroke:none;stroke-width:1px;stroke-linecap:butt;stroke-linejoin:miter;stroke-opacity:1"
         d="m 173.73862,906.36508 c -14.8856,11.26669 -40.0981,15.70991 -63.8957,12.95664 12.55634,7.85415 40.40524,14.83255 62.26572,12.78203 -4.63212,8.5803 -24.27943,16.18212 -24.27943,16.18212 0,0 37.76585,0.45447 52.34548,-14.30237 11.67815,13.72679 51.28309,17.5569 51.28309,17.5569 0,0 -17.61493,-8.90951 -20.61491,-20.18853 19.14838,8.72714 43.93742,-3.95813 67.28415,-13.15803 -27.40787,3.53482 -51.5525,-2.39173 -67.58664,-12.85986 -16.14734,6.19707 -12.01235,20.93753 -29.99396,19.62687 -19.37395,-1.5196 -10.19531,-10.40579 -26.8078,-18.59577 z"
         id="path4820"
         inkscape:connector-curvature="0"
         sodipodi:nodetypes="ccccccccccc" />
    </g>
  </g>
</svg>
