<?xml version="1.0" encoding="UTF-8" standalone="no"?>
<!DOCTYPE svg PUBLIC "-//W3C//DTD SVG 1.1//EN" "http://www.w3.org/Graphics/SVG/1.1/DTD/svg11.dtd">
<svg xmlns="http://www.w3.org/2000/svg" version="1.1" viewBox="0 0 531 595" width="531.0pt" height="595.0pt">
<path d="M 0.00 0.00 L 266.25 0.00 C 259.84 4.16 253.14 7.79 246.44 11.46 C 219.75 26.83 192.88 41.82 166.19 57.19 C 145.40 68.61 125.09 80.88 104.29 92.26 C 80.91 105.71 57.55 118.77 34.19 132.19 C 24.76 137.41 15.34 142.68 6.09 148.21 C 5.94 153.81 5.97 159.40 6.01 165.00 C 6.00 250.00 6.00 335.00 6.00 420.00 C 6.05 427.93 5.87 435.86 6.09 443.79 C 27.34 456.32 49.07 468.19 70.44 480.54 C 104.83 500.07 139.39 519.64 173.71 539.25 C 190.66 548.56 207.24 558.52 224.19 567.81 C 236.91 575.12 249.68 582.32 262.34 589.70 C 263.68 590.33 265.29 591.41 266.80 591.38 C 270.64 590.18 274.11 587.53 277.65 585.64 C 311.20 566.52 344.63 547.18 378.29 528.27 C 413.49 508.13 448.71 488.02 483.93 467.90 C 497.49 460.00 511.31 452.58 524.84 444.63 C 525.17 437.75 524.97 430.88 524.99 424.00 C 525.01 337.00 524.99 250.00 525.00 163.00 C 525.05 157.81 525.08 152.62 524.83 147.43 C 496.74 131.47 468.70 115.39 440.65 99.37 C 386.38 68.75 332.46 37.46 278.18 6.83 C 274.30 4.70 270.58 2.43 266.88 0.00 L 531.00 0.00 L 531.00 595.00 L 0.00 595.00 L 0.00 0.00 Z" fill="#ffffff" />
<path d="M 266.25 0.00 L 266.88 0.00 C 270.58 2.43 274.30 4.70 278.18 6.83 C 332.46 37.46 386.38 68.75 440.65 99.37 C 468.70 115.39 496.74 131.47 524.83 147.43 C 525.08 152.62 525.05 157.81 525.00 163.00 C 524.99 250.00 525.01 337.00 524.99 424.00 C 524.97 430.88 525.17 437.75 524.84 444.63 C 511.31 452.58 497.49 460.00 483.93 467.90 C 448.71 488.02 413.49 508.13 378.29 528.27 C 344.63 547.18 311.20 566.52 277.65 585.64 C 274.11 587.53 270.64 590.18 266.80 591.38 C 265.29 591.41 263.68 590.33 262.34 589.70 C 249.68 582.32 236.91 575.12 224.19 567.81 C 207.24 558.52 190.66 548.56 173.71 539.25 C 139.39 519.64 104.83 500.07 70.44 480.54 C 49.07 468.19 27.34 456.32 6.09 443.79 C 5.87 435.86 6.05 427.93 6.00 420.00 C 6.00 335.00 6.00 250.00 6.01 165.00 C 5.97 159.40 5.94 153.81 6.09 148.21 C 15.34 142.68 24.76 137.41 34.19 132.19 C 57.55 118.77 80.91 105.71 104.29 92.26 C 125.09 80.88 145.40 68.61 166.19 57.19 C 192.88 41.82 219.75 26.83 246.44 11.46 C 253.14 7.79 259.84 4.16 266.25 0.00 Z" fill="#010101" />
<path d="M 266.48 9.55 C 270.68 11.52 274.66 13.99 278.71 16.27 C 349.93 56.80 421.75 97.43 493.01 137.97 C 501.67 142.94 510.70 147.49 518.94 153.14 C 519.11 247.74 518.91 342.44 519.04 437.06 C 518.84 438.83 519.29 440.54 517.70 441.73 C 514.86 444.24 511.02 445.92 507.72 447.75 C 450.01 480.62 391.98 513.34 334.29 546.25 C 320.10 553.99 306.27 562.38 292.07 570.10 C 284.22 574.57 276.38 579.04 268.58 583.61 C 267.31 584.19 265.85 585.35 264.43 584.59 C 261.09 583.07 258.02 580.96 254.81 579.18 C 197.55 546.58 139.89 514.00 82.64 481.39 C 68.47 473.63 54.63 465.27 40.44 457.54 C 31.00 452.24 21.72 446.64 12.16 441.57 C 11.97 437.05 11.94 432.53 11.99 428.00 C 12.06 336.39 11.91 244.73 12.06 153.14 C 16.42 149.96 21.13 147.46 25.82 144.82 C 38.24 138.00 50.48 130.81 62.81 123.82 C 75.25 117.00 87.48 109.81 99.81 102.82 C 112.25 96.00 124.48 88.81 136.81 81.82 C 149.88 74.65 162.73 67.07 175.71 59.75 C 185.18 54.62 194.44 49.12 203.81 43.82 C 217.10 36.54 230.15 28.81 243.36 21.39 C 249.86 17.94 256.15 14.12 262.56 10.49 C 263.86 9.92 265.03 8.77 266.48 9.55 Z" fill="#ffffff" />
<path d="M 265.84 14.41 C 269.90 15.81 273.52 18.61 277.31 20.63 C 311.69 40.22 346.21 59.71 380.57 79.34 C 397.72 88.77 414.52 98.84 431.68 108.27 C 443.98 115.28 456.26 122.33 468.57 129.34 C 483.89 137.73 498.84 146.76 514.21 155.07 C 514.52 162.72 514.29 170.35 514.34 178.00 C 514.35 259.67 514.34 341.33 514.35 423.00 C 514.39 428.30 514.42 433.60 514.20 438.91 C 509.05 441.88 503.85 444.79 498.68 447.73 C 481.11 457.41 463.88 467.70 446.31 477.37 C 422.99 490.78 399.50 503.87 376.19 517.30 C 357.15 527.84 338.43 538.93 319.40 549.46 C 302.47 559.29 285.31 568.69 268.40 578.54 C 267.22 579.06 265.86 580.02 264.55 579.41 C 260.32 577.61 256.49 574.84 252.44 572.65 C 233.30 561.80 214.14 550.99 195.06 540.02 C 180.04 531.79 165.34 522.96 150.32 514.73 C 138.22 507.84 126.15 500.91 114.06 494.02 C 96.28 484.23 78.84 473.81 61.06 464.02 C 46.36 455.55 31.59 447.22 16.80 438.90 C 16.50 431.93 16.68 424.97 16.66 418.00 C 16.63 331.64 16.68 245.29 16.63 158.93 C 16.13 154.28 20.37 153.45 23.51 151.37 C 58.79 131.38 94.12 111.40 129.32 91.27 C 146.48 81.84 163.28 71.77 180.43 62.34 C 207.18 47.03 234.03 31.94 260.76 16.61 C 262.31 15.82 264.08 14.51 265.84 14.41 Z" fill="#010101" />
<path d="M 266.00 35.77 C 271.35 35.71 276.92 39.99 281.47 42.52 C 293.35 49.26 305.04 56.31 316.78 63.26 C 323.11 67.40 329.59 71.14 336.23 74.75 C 351.67 83.60 366.83 92.92 382.18 101.92 C 401.62 113.51 420.79 125.44 440.62 136.35 C 450.62 142.39 460.48 148.59 470.85 154.00 C 477.10 156.99 482.87 160.73 488.83 164.23 C 491.95 166.18 496.12 167.65 498.51 170.48 C 499.76 174.71 499.18 179.61 499.28 184.00 C 499.24 259.66 499.28 335.33 499.27 411.00 C 499.30 416.60 499.47 422.16 498.87 427.74 C 479.56 438.43 459.92 448.54 440.80 459.59 C 429.17 465.62 417.88 472.25 406.28 478.34 C 389.58 487.63 373.03 497.21 356.15 506.16 C 337.08 516.80 317.94 527.33 298.83 537.88 C 290.65 542.78 282.21 547.21 273.95 551.96 C 270.78 553.67 266.71 555.83 263.03 555.40 C 259.67 554.88 256.64 552.01 254.00 550.01 C 249.50 546.37 244.52 544.27 239.53 541.45 C 222.01 531.61 204.36 521.98 186.86 512.09 C 179.39 507.48 171.51 503.64 163.96 499.18 C 132.29 481.97 101.13 463.77 69.59 446.33 C 59.62 441.16 49.94 435.50 40.43 429.52 C 38.40 428.08 36.03 426.75 35.70 424.02 C 35.13 419.41 35.53 414.65 35.47 410.00 C 35.44 333.67 35.48 257.33 35.45 181.00 C 35.56 176.87 34.91 172.22 36.08 168.25 C 38.06 165.13 42.20 163.20 45.26 161.25 C 57.83 154.18 70.36 147.05 82.83 139.80 C 111.44 123.84 139.52 106.97 168.15 91.04 C 197.20 74.45 226.00 57.50 255.11 41.00 C 258.45 39.12 262.17 36.34 266.00 35.77 Z" fill="#fcfcfc" />
<path d="M 269.15 55.65 C 275.79 56.88 280.17 60.73 286.05 63.94 C 348.57 100.68 411.33 137.40 473.84 174.13 C 476.48 175.68 479.74 177.11 481.78 179.42 C 482.64 181.85 481.32 183.59 480.22 185.64 C 477.59 184.77 474.97 183.85 472.41 182.77 C 417.53 150.19 362.28 118.14 307.29 85.74 C 294.54 78.49 282.15 70.50 269.12 63.78 C 269.06 61.07 269.08 58.36 269.15 55.65 Z" fill="#a1804b" />
<path d="M 262.86 56.75 C 262.92 59.15 262.96 61.55 262.94 63.94 C 251.98 69.86 241.19 76.15 230.43 82.43 C 206.12 96.49 181.59 110.19 157.36 124.37 C 137.84 135.52 118.32 146.66 98.82 157.83 C 87.13 164.95 74.94 171.03 63.63 178.77 C 61.08 179.96 58.46 180.75 55.77 181.57 C 54.84 179.70 53.31 177.63 54.27 175.46 C 55.80 173.64 58.10 172.31 60.12 171.06 C 89.08 153.88 118.59 137.64 147.64 120.61 C 180.78 101.82 213.68 82.64 246.80 63.81 C 252.26 60.86 256.34 57.10 262.86 56.75 Z" fill="#d0aa6b" />
<path d="M 262.94 63.94 C 262.69 80.62 262.96 97.31 262.89 114.00 C 263.02 121.95 262.53 129.98 263.28 137.85 C 265.13 137.88 266.98 137.87 268.84 137.84 C 269.22 134.55 269.39 131.30 269.36 128.00 C 269.16 106.59 269.36 85.18 269.12 63.78 C 282.15 70.50 294.54 78.49 307.29 85.74 C 362.28 118.14 417.53 150.19 472.41 182.77 C 410.74 282.92 348.89 383.05 287.19 483.19 C 281.22 492.84 275.40 502.57 269.21 512.08 C 269.46 480.10 269.25 448.00 269.32 416.00 C 269.17 408.06 269.74 399.99 268.91 392.12 C 267.29 391.96 265.67 391.80 264.05 391.65 C 263.55 397.42 263.43 403.21 263.42 409.00 C 263.42 443.56 263.45 478.45 263.37 512.98 C 263.40 515.43 263.60 517.87 263.93 520.30 C 203.70 417.55 142.93 314.16 82.63 211.35 C 76.28 200.50 69.78 189.73 63.63 178.77 C 74.94 171.03 87.13 164.95 98.82 157.83 C 118.32 146.66 137.84 135.52 157.36 124.37 C 181.59 110.19 206.12 96.49 230.43 82.43 C 241.19 76.15 251.98 69.86 262.94 63.94 Z" fill="#000000" />
<path d="M 282.04 143.97 C 294.93 147.93 306.53 155.76 314.22 166.94 C 314.44 169.05 314.58 171.17 314.74 173.29 C 311.51 173.92 307.99 174.28 305.17 176.07 C 300.82 178.82 295.85 183.29 290.65 184.20 C 287.02 183.54 283.54 181.82 279.95 180.86 C 275.31 179.13 271.06 177.15 266.01 176.93 C 261.40 176.77 256.69 177.72 252.42 179.45 C 248.27 181.15 245.20 184.57 241.99 187.57 C 240.54 185.20 239.26 182.91 239.11 180.05 C 238.17 171.19 238.11 162.71 234.45 154.40 C 236.77 152.15 238.71 149.80 240.19 146.92 C 243.96 145.00 247.83 143.51 252.07 143.06 C 261.89 141.90 272.39 141.61 282.04 143.97 Z" fill="#b99559" />
<path d="M 240.19 146.92 C 238.71 149.80 236.77 152.15 234.45 154.40 C 238.11 162.71 238.17 171.19 239.11 180.05 C 239.26 182.91 240.54 185.20 241.99 187.57 C 240.65 193.19 238.93 198.15 239.68 204.06 C 240.10 207.83 241.33 211.43 243.07 214.80 C 241.64 213.87 240.15 213.04 238.61 212.29 C 237.47 215.91 235.87 219.79 235.77 223.62 C 236.17 229.34 238.87 234.75 238.14 240.96 C 237.78 243.00 235.78 244.77 234.47 246.33 C 236.31 246.71 238.15 247.06 240.00 247.39 C 238.85 249.39 237.65 251.35 236.50 253.34 C 238.45 255.54 239.67 257.40 240.03 260.38 L 239.37 259.92 C 235.42 257.34 232.67 253.98 229.24 250.77 C 225.46 247.17 221.78 243.48 218.13 239.75 C 211.79 233.44 208.41 223.86 205.46 215.59 C 203.99 210.68 203.90 205.20 203.82 200.11 C 203.70 193.27 204.40 186.55 207.21 180.24 C 209.94 173.72 213.74 167.58 218.10 162.03 C 223.79 155.30 232.23 150.45 240.19 146.92 Z" fill="#a3804c" />
<path d="M 314.22 166.94 C 321.63 176.37 325.51 187.75 325.59 199.75 C 327.18 200.23 328.77 200.71 330.37 201.12 C 325.09 200.65 319.97 200.38 314.82 201.90 C 304.61 205.01 294.88 206.79 287.53 215.18 C 290.13 219.01 293.41 222.16 296.48 225.58 C 299.42 228.86 300.31 232.83 302.52 236.45 C 304.62 239.42 307.69 240.11 311.07 240.57 C 305.56 245.21 300.31 250.14 295.21 255.22 C 293.28 257.09 291.88 259.32 290.64 261.69 C 288.70 259.96 286.94 258.12 285.16 256.24 C 286.66 255.86 288.83 255.93 290.03 254.92 C 291.18 253.66 290.22 252.56 289.85 251.18 C 287.36 245.04 283.95 239.29 279.79 234.13 C 277.79 231.65 276.11 228.98 274.49 226.25 C 278.66 221.75 284.24 217.60 287.22 212.22 C 290.17 206.49 290.65 199.40 288.72 193.27 C 287.14 188.26 283.58 184.49 279.95 180.86 C 283.54 181.82 287.02 183.54 290.65 184.20 C 295.85 183.29 300.82 178.82 305.17 176.07 C 307.99 174.28 311.51 173.92 314.74 173.29 C 314.58 171.17 314.44 169.05 314.22 166.94 Z" fill="#a2804c" />
<path d="M 266.01 176.93 C 271.06 177.15 275.31 179.13 279.95 180.86 C 283.58 184.49 287.14 188.26 288.72 193.27 C 290.65 199.40 290.17 206.49 287.22 212.22 C 284.24 217.60 278.66 221.75 274.49 226.25 C 271.21 229.64 268.08 233.15 264.40 236.14 C 257.31 229.01 250.10 221.99 243.07 214.80 C 241.33 211.43 240.10 207.83 239.68 204.06 C 238.93 198.15 240.65 193.19 241.99 187.57 C 245.20 184.57 248.27 181.15 252.42 179.45 C 256.69 177.72 261.40 176.77 266.01 176.93 Z" fill="#020103" />
<path d="M 63.63 178.77 C 69.78 189.73 76.28 200.50 82.63 211.35 C 142.93 314.16 203.70 417.55 263.93 520.30 C 262.08 523.44 261.24 526.86 260.44 530.38 C 243.39 500.90 225.96 471.61 208.79 442.20 C 157.77 355.36 106.83 268.37 55.77 181.57 C 58.46 180.75 61.08 179.96 63.63 178.77 Z" fill="#b8955b" />
<path d="M 472.41 182.77 C 474.97 183.85 477.59 184.77 480.22 185.64 C 475.98 192.00 472.18 198.62 468.10 205.08 C 434.01 260.32 399.96 315.59 365.87 370.84 C 335.29 420.61 304.32 470.17 274.23 520.23 C 271.91 523.75 269.73 527.91 266.51 530.67 C 264.76 531.48 262.28 530.59 260.44 530.38 C 261.24 526.86 262.08 523.44 263.93 520.30 C 265.72 517.58 267.58 514.91 269.21 512.08 C 275.40 502.57 281.22 492.84 287.19 483.19 C 348.89 383.05 410.74 282.92 472.41 182.77 Z" fill="#ceab6b" />
<path d="M 44.17 187.15 C 50.52 197.70 56.82 208.28 63.17 218.83 C 84.81 255.96 106.09 292.30 127.70 329.36 C 132.61 337.50 137.21 345.80 141.94 354.05 C 149.70 367.01 157.20 380.11 164.90 393.11 C 182.49 423.81 200.72 454.14 218.19 484.92 C 214.09 481.65 210.38 478.03 206.75 474.25 C 155.93 423.40 105.08 372.59 54.26 321.74 C 50.42 317.86 46.71 313.95 42.35 310.63 C 42.55 307.41 42.54 304.21 42.53 301.00 C 42.47 265.66 42.58 230.31 42.46 194.97 C 42.41 192.10 42.98 189.73 44.17 187.15 Z" fill="#000000" />
<path d="M 492.40 188.75 C 492.67 194.18 492.54 199.57 492.54 205.00 C 492.52 232.00 492.54 259.00 492.54 286.00 C 492.55 292.86 492.43 299.70 492.71 306.55 C 487.88 308.77 484.89 312.58 481.25 316.25 C 429.58 367.91 377.91 419.58 326.24 471.25 C 323.03 474.67 319.80 477.94 315.89 480.59 C 338.85 442.05 362.19 403.69 385.14 365.13 C 391.48 354.19 398.31 343.54 404.67 332.61 C 410.91 322.19 417.43 311.94 423.43 301.36 C 443.47 268.69 462.83 235.59 482.80 202.88 C 485.91 197.77 487.53 192.59 492.40 188.75 Z" fill="#000000" />
<path d="M 203.82 200.11 C 203.90 205.20 203.99 210.68 205.46 215.59 C 208.41 223.86 211.79 233.44 218.13 239.75 C 212.90 235.99 206.19 235.87 200.01 236.12 C 192.70 236.22 186.41 241.61 181.95 246.93 C 175.97 255.80 177.53 268.63 184.39 276.60 C 188.39 280.93 194.07 283.80 199.96 284.27 C 203.63 284.60 207.35 284.47 211.01 284.06 C 205.40 285.29 199.73 284.24 194.18 285.19 C 192.69 285.50 190.42 286.41 190.29 288.19 C 189.60 293.37 190.03 298.77 190.00 304.00 C 190.05 308.75 189.27 313.43 189.34 318.18 C 181.18 315.75 172.72 312.31 165.99 307.01 C 159.83 302.22 154.38 296.31 150.38 289.60 C 147.18 284.23 145.27 278.23 143.68 272.22 C 141.20 262.80 141.26 252.17 144.94 243.07 C 146.93 237.90 148.95 232.68 152.08 228.07 C 156.46 221.60 162.16 216.01 168.55 211.53 C 173.73 207.86 179.82 205.85 185.76 203.69 C 191.73 201.52 197.61 201.10 203.82 200.11 Z" fill="#866134" />
<path d="M 330.37 201.12 C 324.52 201.59 318.21 201.78 312.62 203.51 C 307.71 204.96 302.82 206.72 297.99 208.41 C 297.80 211.49 297.99 213.51 300.20 215.82 C 305.30 221.26 309.17 227.50 313.53 233.51 C 312.79 234.43 312.06 235.36 311.32 236.28 C 312.58 236.60 313.84 236.91 315.12 237.18 C 313.72 238.27 312.41 239.42 311.07 240.57 C 307.69 240.11 304.62 239.42 302.52 236.45 C 300.31 232.83 299.42 228.86 296.48 225.58 C 293.41 222.16 290.13 219.01 287.53 215.18 C 294.88 206.79 304.61 205.01 314.82 201.90 C 319.97 200.38 325.09 200.65 330.37 201.12 Z" fill="#bb945a" />
<path d="M 330.37 201.12 C 344.77 202.47 358.84 208.71 369.48 218.52 C 381.15 230.77 388.31 248.50 386.70 265.50 C 384.79 279.55 379.09 292.84 368.13 302.19 C 365.63 302.73 363.10 303.10 360.57 303.45 C 358.76 300.90 357.04 298.41 354.85 296.16 C 352.31 293.51 349.62 291.56 347.71 288.33 C 345.90 285.25 344.43 281.96 342.76 278.80 C 346.59 274.48 349.80 270.01 350.34 264.06 C 350.95 257.44 350.08 249.79 345.20 244.82 C 341.99 241.51 337.99 238.10 333.50 236.77 C 327.66 235.41 320.99 236.19 315.12 237.18 C 313.84 236.91 312.58 236.60 311.32 236.28 C 312.06 235.36 312.79 234.43 313.53 233.51 C 309.17 227.50 305.30 221.26 300.20 215.82 C 297.99 213.51 297.80 211.49 297.99 208.41 C 302.82 206.72 307.71 204.96 312.62 203.51 C 318.21 201.78 324.52 201.59 330.37 201.12 Z" fill="#d0aa6b" />
<path d="M 238.61 212.29 C 240.15 213.04 241.64 213.87 243.07 214.80 C 250.10 221.99 257.31 229.01 264.40 236.14 C 271.02 243.17 278.54 249.24 285.16 256.24 C 286.94 258.12 288.70 259.96 290.64 261.69 C 293.24 263.90 295.84 266.11 298.27 268.52 C 296.19 269.19 294.12 269.84 292.05 270.50 C 291.62 268.08 291.23 265.68 290.68 263.28 C 289.65 263.80 288.64 264.37 287.64 264.95 C 291.20 274.68 290.20 286.20 288.35 296.19 C 287.34 300.89 291.93 305.23 293.84 309.23 C 295.61 312.09 294.32 314.54 293.66 317.50 C 292.54 321.17 292.17 324.93 292.00 328.75 C 291.25 327.91 290.49 327.07 289.73 326.24 C 289.43 330.66 289.08 335.07 288.53 339.47 C 289.26 339.15 290.00 338.84 290.74 338.52 C 290.42 342.50 289.87 346.45 289.38 350.41 C 288.68 355.27 290.64 359.77 289.71 364.64 C 293.50 365.47 297.28 366.10 301.15 366.46 C 293.50 372.36 284.47 375.96 275.04 377.82 C 263.78 379.88 252.32 378.41 241.68 374.32 C 240.89 371.08 239.74 368.50 237.91 365.72 C 239.06 364.66 240.31 363.60 241.26 362.36 C 241.40 360.67 241.17 358.91 241.01 357.22 C 243.46 354.80 245.86 352.73 247.62 349.71 C 249.22 346.88 250.79 344.07 252.91 341.57 C 259.05 344.04 265.59 345.30 272.01 343.06 C 278.99 340.55 285.56 335.28 288.39 328.29 C 290.73 322.98 289.80 316.30 287.97 310.97 C 285.90 304.97 280.84 300.85 276.52 296.48 C 272.86 292.93 269.30 289.27 265.82 285.54 C 257.45 276.93 248.70 268.66 240.03 260.38 C 239.67 257.40 238.45 255.54 236.50 253.34 C 237.65 251.35 238.85 249.39 240.00 247.39 C 238.15 247.06 236.31 246.71 234.47 246.33 C 235.78 244.77 237.78 243.00 238.14 240.96 C 238.87 234.75 236.17 229.34 235.77 223.62 C 235.87 219.79 237.47 215.91 238.61 212.29 Z" fill="#ba955a" />
<path d="M 274.49 226.25 C 276.11 228.98 277.79 231.65 279.79 234.13 C 283.95 239.29 287.36 245.04 289.85 251.18 C 290.22 252.56 291.18 253.66 290.03 254.92 C 288.83 255.93 286.66 255.86 285.16 256.24 C 278.54 249.24 271.02 243.17 264.40 236.14 C 268.08 233.15 271.21 229.64 274.49 226.25 Z" fill="#876134" />
<path d="M 200.01 236.12 C 206.19 235.87 212.90 235.99 218.13 239.75 C 221.78 243.48 225.46 247.17 229.24 250.77 C 232.67 253.98 235.42 257.34 239.37 259.92 C 233.33 266.36 226.75 272.22 220.87 278.81 C 217.88 280.84 214.52 283.13 211.01 284.06 C 207.35 284.47 203.63 284.60 199.96 284.27 C 194.07 283.80 188.39 280.93 184.39 276.60 C 177.53 268.63 175.97 255.80 181.95 246.93 C 186.41 241.61 192.70 236.22 200.01 236.12 Z" fill="#020103" />
<path d="M 333.50 236.77 C 337.99 238.10 341.99 241.51 345.20 244.82 C 350.08 249.79 350.95 257.44 350.34 264.06 C 349.80 270.01 346.59 274.48 342.76 278.80 C 335.54 283.65 327.54 285.46 318.91 284.04 C 316.62 283.53 314.40 282.77 312.23 281.88 C 307.70 277.29 302.87 273.03 298.27 268.52 C 295.84 266.11 293.24 263.90 290.64 261.69 C 291.88 259.32 293.28 257.09 295.21 255.22 C 300.31 250.14 305.56 245.21 311.07 240.57 C 312.41 239.42 313.72 238.27 315.12 237.18 C 320.99 236.19 327.66 235.41 333.50 236.77 Z" fill="#020103" />
<path d="M 239.37 259.92 L 240.03 260.38 C 248.70 268.66 257.45 276.93 265.82 285.54 C 259.22 288.63 255.71 293.96 249.89 298.88 C 251.39 297.08 252.79 295.16 254.17 293.27 C 253.23 292.81 252.30 292.35 251.36 291.89 C 251.40 290.45 251.44 289.02 251.49 287.58 C 248.10 288.17 244.43 289.45 241.14 287.85 C 237.49 286.20 233.81 284.55 230.24 282.77 C 228.35 281.93 227.57 279.31 226.49 277.64 C 224.59 277.90 222.71 278.31 220.87 278.81 C 226.75 272.22 233.33 266.36 239.37 259.92 Z" fill="#866135" />
<path d="M 290.68 263.28 C 291.23 265.68 291.62 268.08 292.05 270.50 C 294.12 269.84 296.19 269.19 298.27 268.52 C 302.87 273.03 307.70 277.29 312.23 281.88 C 314.82 285.68 316.99 289.85 319.02 293.98 C 321.18 298.46 323.27 302.98 324.10 307.92 C 324.74 311.85 324.87 315.88 325.10 319.84 C 325.36 325.17 325.13 330.40 323.52 335.52 C 319.31 347.86 311.88 358.89 301.15 366.46 C 297.28 366.10 293.50 365.47 289.71 364.64 C 290.64 359.77 288.68 355.27 289.38 350.41 C 289.87 346.45 290.42 342.50 290.74 338.52 C 290.00 338.84 289.26 339.15 288.53 339.47 C 289.08 335.07 289.43 330.66 289.73 326.24 C 290.49 327.07 291.25 327.91 292.00 328.75 C 292.17 324.93 292.54 321.17 293.66 317.50 C 294.32 314.54 295.61 312.09 293.84 309.23 C 291.93 305.23 287.34 300.89 288.35 296.19 C 290.20 286.20 291.20 274.68 287.64 264.95 C 288.64 264.37 289.65 263.80 290.68 263.28 Z" fill="#d0aa6b" />
<path d="M 226.49 277.64 C 227.57 279.31 228.35 281.93 230.24 282.77 C 233.81 284.55 237.49 286.20 241.14 287.85 C 244.43 289.45 248.10 288.17 251.49 287.58 C 251.44 289.02 251.40 290.45 251.36 291.89 C 252.30 292.35 253.23 292.81 254.17 293.27 C 252.79 295.16 251.39 297.08 249.89 298.88 C 246.84 301.84 244.00 305.02 240.94 307.98 C 229.49 314.28 216.52 319.90 203.20 319.28 C 198.53 319.22 193.95 319.04 189.34 318.18 C 189.27 313.43 190.05 308.75 190.00 304.00 C 190.03 298.77 189.60 293.37 190.29 288.19 C 190.42 286.41 192.69 285.50 194.18 285.19 C 199.73 284.24 205.40 285.29 211.01 284.06 C 214.52 283.13 217.88 280.84 220.87 278.81 C 222.71 278.31 224.59 277.90 226.49 277.64 Z" fill="#a2804a" />
<path d="M 342.76 278.80 C 344.43 281.96 345.90 285.25 347.71 288.33 C 349.62 291.56 352.31 293.51 354.85 296.16 C 357.04 298.41 358.76 300.90 360.57 303.45 C 363.10 303.10 365.63 302.73 368.13 302.19 C 363.48 306.94 358.43 310.81 352.15 313.19 C 349.49 313.83 345.77 315.08 343.12 313.94 C 340.96 312.61 339.81 309.55 338.42 307.50 C 336.42 303.96 332.92 302.59 330.53 299.54 C 328.09 296.10 327.42 291.24 325.92 287.41 C 325.38 284.78 321.01 284.82 318.91 284.04 C 327.54 285.46 335.54 283.65 342.76 278.80 Z" fill="#ba955b" />
<path d="M 312.23 281.88 C 314.40 282.77 316.62 283.53 318.91 284.04 C 321.01 284.82 325.38 284.78 325.92 287.41 C 327.42 291.24 328.09 296.10 330.53 299.54 C 332.92 302.59 336.42 303.96 338.42 307.50 C 339.81 309.55 340.96 312.61 343.12 313.94 C 345.77 315.08 349.49 313.83 352.15 313.19 C 347.50 315.11 342.59 317.53 337.66 318.48 C 333.56 319.27 329.26 319.47 325.10 319.84 C 324.87 315.88 324.74 311.85 324.10 307.92 C 323.27 302.98 321.18 298.46 319.02 293.98 C 316.99 289.85 314.82 285.68 312.23 281.88 Z" fill="#a5804d" />
<path d="M 265.82 285.54 C 269.30 289.27 272.86 292.93 276.52 296.48 C 280.84 300.85 285.90 304.97 287.97 310.97 C 289.80 316.30 290.73 322.98 288.39 328.29 C 285.56 335.28 278.99 340.55 272.01 343.06 C 265.59 345.30 259.05 344.04 252.91 341.57 C 247.77 338.53 243.63 334.40 240.77 329.14 C 238.27 321.87 239.86 315.29 240.94 307.98 C 244.00 305.02 246.84 301.84 249.89 298.88 C 255.71 293.96 259.22 288.63 265.82 285.54 Z" fill="#020103" />
<path d="M 492.71 306.55 C 492.71 308.18 492.88 309.95 492.46 311.54 C 490.36 314.85 486.97 317.43 484.26 320.26 C 429.93 374.59 375.58 428.92 321.26 483.26 C 318.26 486.13 315.46 489.87 311.82 491.92 C 309.99 492.43 308.69 491.03 309.18 489.23 C 310.81 486.02 313.56 483.30 315.89 480.59 C 319.80 477.94 323.03 474.67 326.24 471.25 C 377.91 419.58 429.58 367.91 481.25 316.25 C 484.89 312.58 487.88 308.77 492.71 306.55 Z" fill="#b99259" />
<path d="M 240.94 307.98 C 239.86 315.29 238.27 321.87 240.77 329.14 C 238.84 325.84 236.97 322.50 235.02 319.21 C 233.42 323.54 232.24 327.69 229.47 331.48 C 227.14 334.64 224.88 337.65 223.83 341.50 C 222.79 345.32 220.83 349.06 220.30 352.97 C 220.98 356.10 222.37 359.04 223.00 362.20 C 219.59 359.11 216.20 356.24 213.69 352.31 C 210.77 347.75 208.30 342.80 206.21 337.80 C 203.77 331.94 204.08 325.78 203.20 319.28 C 216.52 319.90 229.49 314.28 240.94 307.98 Z" fill="#866135" />
<path d="M 42.35 310.63 C 46.71 313.95 50.42 317.86 54.26 321.74 C 105.08 372.59 155.93 423.40 206.75 474.25 C 210.38 478.03 214.09 481.65 218.19 484.92 C 219.83 486.86 221.79 488.85 222.85 491.18 C 223.44 493.10 221.89 494.08 220.15 493.97 C 219.06 493.37 218.14 492.60 217.22 491.78 C 159.46 433.92 101.53 376.11 43.77 318.25 C 41.47 315.98 42.29 313.51 42.35 310.63 Z" fill="#a38048" />
<path d="M 235.02 319.21 C 236.97 322.50 238.84 325.84 240.77 329.14 C 243.63 334.40 247.77 338.53 252.91 341.57 C 250.79 344.07 249.22 346.88 247.62 349.71 C 245.86 352.73 243.46 354.80 241.01 357.22 C 241.17 358.91 241.40 360.67 241.26 362.36 C 240.31 363.60 239.06 364.66 237.91 365.72 C 239.74 368.50 240.89 371.08 241.68 374.32 C 234.55 371.65 228.20 367.82 223.00 362.20 C 222.37 359.04 220.98 356.10 220.30 352.97 C 220.83 349.06 222.79 345.32 223.83 341.50 C 224.88 337.65 227.14 334.64 229.47 331.48 C 232.24 327.69 233.42 323.54 235.02 319.21 Z" fill="#a3804b" />
<path d="M 491.39 321.00 C 491.64 321.67 491.87 322.35 492.08 323.04 C 492.74 327.93 492.38 333.06 492.43 338.00 C 492.43 360.67 492.41 383.33 492.43 406.00 C 492.39 410.29 492.77 414.69 492.25 418.94 C 492.12 420.85 490.22 421.85 488.83 422.84 C 433.77 453.25 378.31 483.83 323.32 514.29 C 310.10 521.34 297.20 529.01 283.87 535.84 L 283.88 534.09 C 288.71 525.04 294.65 517.15 301.93 509.93 C 332.46 479.80 362.63 449.29 392.94 418.94 C 425.64 386.17 458.54 353.61 491.39 321.00 Z" fill="#000000" />
<path d="M 42.89 323.09 C 46.01 325.55 48.77 328.61 51.57 331.43 C 56.68 336.66 62.05 341.62 67.17 346.84 C 87.58 367.42 108.19 387.81 128.59 408.40 C 159.84 439.82 191.38 470.96 222.55 502.45 C 231.38 510.87 239.11 520.59 245.46 531.00 C 244.97 531.64 244.48 532.28 243.99 532.91 C 204.80 511.09 165.50 489.53 126.34 467.66 C 102.57 454.41 78.69 441.37 54.92 428.11 C 50.46 425.72 47.13 422.73 41.85 422.45 C 41.65 394.35 41.82 366.12 41.72 338.00 C 41.72 332.83 41.26 328.10 42.89 323.09 Z" fill="#000000" />
<path d="M 492.08 323.04 C 493.22 328.84 492.48 335.10 492.62 341.00 C 492.74 368.60 492.37 396.21 492.82 423.81 C 486.10 428.28 478.75 431.77 471.73 435.77 C 411.87 468.97 352.05 502.07 292.08 535.08 C 288.51 537.17 284.91 539.07 280.92 540.22 C 281.81 538.13 282.78 536.08 283.88 534.09 L 283.87 535.84 C 297.20 529.01 310.10 521.34 323.32 514.29 C 378.31 483.83 433.77 453.25 488.83 422.84 C 490.22 421.85 492.12 420.85 492.25 418.94 C 492.77 414.69 492.39 410.29 492.43 406.00 C 492.41 383.33 492.43 360.67 492.43 338.00 C 492.38 333.06 492.74 327.93 492.08 323.04 Z" fill="#b99559" />
<path d="M 264.05 391.65 C 265.67 391.80 267.29 391.96 268.91 392.12 C 269.74 399.99 269.17 408.06 269.32 416.00 C 269.25 448.00 269.46 480.10 269.21 512.08 C 267.58 514.91 265.72 517.58 263.93 520.30 C 263.60 517.87 263.40 515.43 263.37 512.98 C 263.45 478.45 263.42 443.56 263.42 409.00 C 263.43 403.21 263.55 397.42 264.05 391.65 Z" fill="#fdfdfd" />
<path d="M 54.92 428.11 C 78.69 441.37 102.57 454.41 126.34 467.66 C 165.50 489.53 204.80 511.09 243.99 532.91 C 244.48 532.28 244.97 531.64 245.46 531.00 C 246.48 533.11 247.19 535.31 247.91 537.53 C 243.52 536.53 239.69 534.48 235.87 532.18 C 197.22 510.38 158.33 489.10 119.58 467.46 C 96.87 454.79 74.14 442.15 51.33 429.66 C 47.74 427.60 43.96 426.23 41.85 422.45 C 47.13 422.73 50.46 425.72 54.92 428.11 Z" fill="#866134" />
</svg>