<svg xmlns="http://www.w3.org/2000/svg" xmlns:xlink="http://www.w3.org/1999/xlink" x="0" y="0" enable-background="new 0 0 500 500" version="1.1" viewBox="0 0 500 500" xml:space="preserve"><style type="text/css">.st0,.st1{clip-path:url(#Coin_1_);fill:#0000a6}.st1{fill:#00007c}.st2{fill:#fff}.st3{fill:#0000a6}</style><g id="TAUD_BG"><defs><path id="Coin" d="M250,500L250,500C112.5,500,0,387.5,0,250v0C0,112.5,112.5,0,250,0h0c137.5,0,250,112.5,250,250v0 C500,387.5,387.5,500,250,500z"/></defs><clipPath id="Coin_1_"><use overflow="visible" xlink:href="#Coin"/></clipPath><path id="Coin_2_" d="M250,500L250,500C112.5,500,0,387.5,0,250v0C0,112.5,112.5,0,250,0h0c137.5,0,250,112.5,250,250 v0C500,387.5,387.5,500,250,500z" class="st0"/><path id="_x35_" d="M257.61,436.71l9.61,29.89l29.36-11.12l-17.37,26.15l27,16.02l-31.28,2.72l4.31,31.1l-21.63-22.76 l-21.63,22.76l4.31-31.1l-31.28-2.72l27-16.02l-17.37-26.15L248,466.6L257.61,436.71z" class="st1"/><path id="_x34_" d="M83.14,160.47l9.61,29.89l29.36-11.12l-17.37,26.15l27,16.02l-31.28,2.72l4.31,31.1l-21.63-22.76 l-21.63,22.76l4.31-31.1l-31.28-2.72l27-16.02l-17.37-26.15l29.36,11.12L83.14,160.47z" class="st1"/><path id="_x33_" d="M257.61-28.53l9.61,29.89l29.36-11.12l-17.37,26.15l27,16.02l-31.28,2.72l4.31,31.1l-21.63-22.76 l-21.63,22.76l4.31-31.1l-31.28-2.72l27-16.02L218.64-9.76L248,1.36L257.61-28.53z" class="st1"/><path id="_x32_" d="M412.69,113.95l9.61,29.89l29.36-11.12l-17.37,26.15l27,16.02l-31.28,2.72l4.31,31.1l-21.63-22.76 l-21.63,22.76l4.31-31.1l-31.28-2.72l27-16.02l-17.37-26.15l29.36,11.12L412.69,113.95z" class="st1"/><path id="_x31_" d="M327.4,253.94l7.6,18.62l20.06,1.47l-15.36,12.98l4.8,19.53l-17.09-10.6l-17.09,10.6l4.8-19.53 l-15.36-12.98l20.06-1.47L327.4,253.94z" class="st1"/></g><g id="TAUD"><path id="BG_1_" d="M376,400H124c-13.2,0-24-10.8-24-24V124c0-13.2,10.8-24,24-24h252c13.2,0,24,10.8,24,24v252 C400,389.2,389.2,400,376,400z" class="st2"/><g><path d="M160.2,369.8c-0.79,0-1.43-0.72-1.43-1.51v-40.31c0-0.79-0.64-1.51-1.43-1.51h-14.23 c-0.8,0-1.51-0.64-1.51-1.43v-7.79c0-0.79,0.72-1.51,1.51-1.51h43.8c0.79,0,1.51,0.71,1.51,1.51v7.79c0,0.79-0.72,1.43-1.51,1.43 h-14.15c-0.8,0-1.51,0.71-1.51,1.51v40.31c0,0.79-0.64,1.51-1.43,1.51H160.2z" class="st3"/><path d="M228.34,369.8c-0.48,0-1.11-0.4-1.43-1.27l-3.18-7.95c-0.32-0.79-0.56-0.88-1.59-0.88h-20.35 c-0.64,0-1.03,0.4-1.19,0.88l-3.18,7.95c-0.4,0.95-0.64,1.27-2.07,1.27h-9.14c-1.03,0-1.67-0.79-1.11-2.07l21.46-50.72 c0.48-1.03,0.72-1.27,1.91-1.27h8.82c0.87,0,1.43,0.64,1.75,1.35l20.83,50.8c0.4,0.95-0.08,1.91-1.11,1.91H228.34z M212.52,331.8 c-0.08-0.16-0.16-0.16-0.24,0l-7.23,17.81c-0.24,0.56-0.08,0.95,0.48,0.95h13.51c0.56,0,0.72-0.48,0.48-0.95L212.52,331.8z" class="st3"/><path d="M280.65,317.25c0-0.79,0.64-1.51,1.43-1.51h9.54c0.79,0,1.51,0.71,1.51,1.51v27.51 c0,16.3-9.22,25.76-23.85,25.76c-14.55,0-23.69-9.46-23.69-25.76v-27.51c0-0.79,0.64-1.51,1.43-1.51h9.54 c0.79,0,1.51,0.71,1.51,1.51v27.9c0,8.03,4.13,13.75,11.29,13.75c7.16,0,11.29-5.72,11.29-13.75V317.25z" class="st3"/><path d="M306.64,369.8c-0.79,0-1.43-0.72-1.43-1.51v-51.04c0-0.79,0.64-1.51,1.43-1.51h21.62 c16.06,0,28.54,11.05,28.54,27.19c0,15.9-12.32,26.87-28.54,26.87H306.64z M328.27,359.06c8.67,0,15.42-6.84,15.42-16.3 s-6.76-16.3-15.5-16.3h-8.98c-0.79,0-1.43,0.71-1.43,1.51v29.65c0,0.79,0.64,1.43,1.43,1.43H328.27z" class="st3"/></g><path id="BG" d="M392,286H108c-2.2,0-4-1.8-4-4V124c0-11,9-20,20-20h252c11,0,20,9,20,20v158 C396,284.2,394.2,286,392,286z" class="st3"/><path id="_x2014__2_" d="M309,169.56H191c-1.65,0-3-1.35-3-3v-26c0-1.65,1.35-3,3-3h118c1.65,0,3,1.35,3,3v26 C312,168.21,310.65,169.56,309,169.56z" class="st2"/><path id="_x7C__1_" d="M264.73,253.56h-26c-1.65,0-3-1.35-3-3v-110c0-1.65,1.35-3,3-3h26c1.65,0,3,1.35,3,3v110 C267.73,252.21,266.38,253.56,264.73,253.56z" class="st2"/></g></svg>