<svg xmlns="http://www.w3.org/2000/svg" xmlns:xlink="http://www.w3.org/1999/xlink" x="0" y="0" enable-background="new 0 0 500 500" version="1.1" viewBox="0 0 500 500" xml:space="preserve"><style type="text/css">.st0,.st1{clip-path:url(#Coin_1_);fill:red}.st1{fill:#c70000}.st2{fill:#fff}.st3{fill:red}</style><g id="TCAD_BG"><defs><path id="Coin" d="M250,500L250,500C112.5,500,0,387.5,0,250v0C0,112.5,112.5,0,250,0h0c137.5,0,250,112.5,250,250v0 C500,387.5,387.5,500,250,500z"/></defs><clipPath id="Coin_1_"><use overflow="visible" xlink:href="#Coin"/></clipPath><path id="Coin_2_" d="M250,500L250,500C112.5,500,0,387.5,0,250v0C0,112.5,112.5,0,250,0h0c137.5,0,250,112.5,250,250 v0C500,387.5,387.5,500,250,500z" class="st0"/><path id="_x31__1_" d="M249.99,40l-40.43,75.41c-4.59,8.2-12.81,7.44-21.03,2.86l-29.27-15.16l21.81,115.83 c4.59,21.16-10.13,21.16-17.4,12.01l-51.08-57.19l-8.29,29.04c-0.96,3.81-5.16,7.82-11.47,6.86l-64.59-13.58l16.97,61.68 c3.63,13.72,6.47,19.41-3.67,23.03l-23.02,10.82l111.19,90.32c4.4,3.42,6.63,9.56,5.06,15.13L125.04,429 c38.29-4.41,72.59-11.05,110.9-15.14c3.38-0.36,9.04,5.22,9.02,9.14L239.88,540h18.61l-2.93-116.76c-0.02-3.92,5.11-9.75,8.49-9.39 c38.31,4.09,72.61,10.73,110.9,15.14l-9.73-31.94c-1.57-5.56,0.66-11.71,5.06-15.12l111.2-90.32l-23.02-10.82 c-10.13-3.62-7.3-9.3-3.67-23.03l16.97-61.68l-64.59,13.58c-6.31,0.95-10.51-3.05-11.47-6.86l-8.29-29.04l-51.08,57.19 c-7.27,9.15-21.98,9.15-17.4-12.01l21.81-115.83l-29.27,15.16c-8.22,4.58-16.44,5.34-21.03-2.86" class="st1"/></g><g id="TCAD"><path id="BG" d="M376,400H124c-13.2,0-24-10.8-24-24V124c0-13.2,10.8-24,24-24h252c13.2,0,24,10.8,24,24v252 C400,389.2,389.2,400,376,400z" class="st2"/><g><path d="M155.42,369.8c-0.79,0-1.43-0.72-1.43-1.51v-40.31c0-0.79-0.64-1.51-1.43-1.51h-14.23 c-0.8,0-1.51-0.64-1.51-1.43v-7.79c0-0.79,0.72-1.51,1.51-1.51h43.8c0.79,0,1.51,0.71,1.51,1.51v7.79c0,0.79-0.72,1.43-1.51,1.43 h-14.15c-0.79,0-1.51,0.71-1.51,1.51v40.31c0,0.79-0.64,1.51-1.43,1.51H155.42z" class="st3"/><path d="M241.12,351.91c1.35,0,1.91,0.95,1.27,2.46c-4.21,9.78-14.47,16.14-26,16.14 c-15.66,0-28.38-11.69-28.38-27.59c0-16.06,12.8-27.83,28.38-27.83c11.37,0,21.62,6.28,25.92,16.06c0.56,1.35,0.08,2.23-1.43,2.23 h-10.02c-1.51,0-1.99-0.4-2.7-1.27c-2.78-3.5-7-5.49-11.69-5.49c-8.43,0-15.34,6.68-15.34,16.14s6.92,16.14,15.34,16.14 c4.77,0,8.98-2.23,11.92-5.88c0.64-0.79,1.43-1.11,2.78-1.11H241.12z" class="st3"/><path d="M291.68,369.8c-0.48,0-1.11-0.4-1.43-1.27l-3.18-7.95c-0.32-0.79-0.56-0.88-1.59-0.88h-20.35 c-0.64,0-1.03,0.4-1.19,0.88l-3.18,7.95c-0.4,0.95-0.64,1.27-2.07,1.27h-9.14c-1.03,0-1.67-0.79-1.11-2.07l21.46-50.72 c0.48-1.03,0.72-1.27,1.91-1.27h8.82c0.88,0,1.43,0.64,1.75,1.35l20.83,50.8c0.4,0.95-0.08,1.91-1.11,1.91H291.68z M275.86,331.8 c-0.08-0.16-0.16-0.16-0.24,0l-7.23,17.81c-0.24,0.56-0.08,0.95,0.48,0.95h13.51c0.56,0,0.72-0.48,0.48-0.95L275.86,331.8z" class="st3"/><path d="M313.46,369.8c-0.79,0-1.43-0.72-1.43-1.51v-51.04c0-0.79,0.64-1.51,1.43-1.51h21.62 c16.06,0,28.54,11.05,28.54,27.19c0,15.9-12.32,26.87-28.54,26.87H313.46z M335.09,359.06c8.67,0,15.42-6.84,15.42-16.3 s-6.76-16.3-15.5-16.3h-8.98c-0.79,0-1.43,0.71-1.43,1.51v29.65c0,0.79,0.64,1.43,1.43,1.43H335.09z" class="st3"/></g><path id="BG_1_" d="M392,286H108c-2.2,0-4-1.8-4-4V124c0-11,9-20,20-20h252c11,0,20,9,20,20v158 C396,284.2,394.2,286,392,286z" class="st3"/><path id="_x2014__2_" d="M309,169.56H191c-1.65,0-3-1.35-3-3v-26c0-1.65,1.35-3,3-3h118c1.65,0,3,1.35,3,3v26 C312,168.21,310.65,169.56,309,169.56z" class="st2"/><path id="_x7C__1_" d="M264.73,253.56h-26c-1.65,0-3-1.35-3-3v-110c0-1.65,1.35-3,3-3h26c1.65,0,3,1.35,3,3v110 C267.73,252.21,266.38,253.56,264.73,253.56z" class="st2"/></g></svg>