<svg xmlns="http://www.w3.org/2000/svg" xmlns:xlink="http://www.w3.org/1999/xlink" x="0" y="0" enable-background="new 0 0 500 500" version="1.1" viewBox="0 0 500 500" xml:space="preserve"><style type="text/css">.st0,.st1{clip-path:url(#Coin_1_);fill:#d51c23}.st1{fill:#a50000}.st2{fill:#fff}.st3{fill:#d51c23}</style><g id="TGBP_BG"><defs><path id="Coin" d="M250,500L250,500C112.5,500,0,387.5,0,250v0C0,112.5,112.5,0,250,0h0c137.5,0,250,112.5,250,250v0 C500,387.5,387.5,500,250,500z"/></defs><clipPath id="Coin_1_"><use overflow="visible" xlink:href="#Coin"/></clipPath><path id="Coin_2_" d="M250,500L250,500C112.5,500,0,387.5,0,250v0C0,112.5,112.5,0,250,0h0c137.5,0,250,112.5,250,250 v0C500,387.5,387.5,500,250,500z" class="st0"/><polyline points="750 199 300 199 300 -1 200 -1 200 199 -250 199 -250 299 200 299 200 499 300 499 300 299 750 299" class="st1"/><path d="M416.67,332.33h74.54L750,461.73V499 M83.33,165.67H8.8L-250,36.27V-1L83.33,165.67z M83.33,332.33h74.54 L-175.46,499H-250L83.33,332.33z M416.67,165.67h-74.54L675.46-1H750L416.67,165.67z" class="st1"/><path d="M-250,332.33V443.1l221.53-110.77 M750,332.33V443.1L528.47,332.33H750z M-250,165.67V54.9l221.53,110.77H-250 z M750,165.67V54.9L528.47,165.67H750z M166.67,499V346.57L-138.2,499H166.67z M333.33,499V346.57L638.2,499H333.33z M166.67-1 v152.43L-138.2-1H166.67z M333.33-1v152.43L638.2-1H333.33z" class="st1"/></g><g id="TGBP"><path id="BG_1_" d="M376,400H124c-13.2,0-24-10.8-24-24V124c0-13.2,10.8-24,24-24h252c13.2,0,24,10.8,24,24v252 C400,389.2,389.2,400,376,400z" class="st2"/><g><path d="M159.69,369.8c-0.79,0-1.43-0.72-1.43-1.51v-40.31c0-0.79-0.64-1.51-1.43-1.51H142.6 c-0.8,0-1.51-0.64-1.51-1.43v-7.79c0-0.79,0.72-1.51,1.51-1.51h43.8c0.79,0,1.51,0.71,1.51,1.51v7.79c0,0.79-0.72,1.43-1.51,1.43 h-14.15c-0.79,0-1.51,0.71-1.51,1.51v40.31c0,0.79-0.64,1.51-1.43,1.51H159.69z" class="st3"/><path d="M222.25,350.32c-0.79,0-1.51-0.64-1.51-1.43v-6.76c0-0.79,0.72-1.51,1.51-1.51h24.8 c1.43,0,2.23,0.4,2.15,1.67c-0.16,16.3-12.08,28.14-28.54,28.14c-15.82,0-28.46-11.61-28.46-27.51c0-16.06,12.8-27.83,28.46-27.83 c11.37,0,21.62,6.28,25.92,16.06c0.56,1.35,0.08,2.23-1.43,2.23h-10.02c-1.51,0-1.99-0.4-2.7-1.27c-2.78-3.5-7-5.64-11.69-5.64 c-8.51,0-15.34,6.84-15.34,16.3s6.84,16.22,15.34,16.22c6.84,0,12-3.18,14.39-8.67H222.25z" class="st3"/><path d="M259.94,369.8c-0.79,0-1.43-0.72-1.43-1.51v-51.04c0-0.79,0.64-1.51,1.43-1.51h26.63 c9.3,0,16.93,6.52,16.93,15.34c0,4.61-2.46,8.19-5.01,10.49c-0.56,0.56-0.48,1.03,0,1.43c2.78,2.15,5.64,5.88,5.64,10.81 c0,8.82-7.31,15.98-17.73,15.98H259.94z M272.26,325.91c-0.87,0-1.27,0.4-1.27,1.27v9.06c0,0.87,0.4,1.27,1.27,1.27h12.8 c3.82,0,6.04-2.78,6.04-5.96c0-3.34-2.31-5.64-6.36-5.64H272.26z M284.74,359.54c3.97,0,6.84-2.94,6.84-6.36 c0-3.26-2.54-6.28-6.76-6.28h-12.56c-0.87,0-1.27,0.48-1.27,1.27v10.1c0,0.88,0.4,1.27,1.27,1.27H284.74z" class="st3"/><path d="M315.19,369.8c-0.79,0-1.43-0.72-1.43-1.51v-51.04c0-0.79,0.64-1.51,1.43-1.51h23.61 c11.61,0,19.79,5.72,19.79,17.33c0,11.45-9.22,17.89-20.43,17.89h-10.49c-0.95,0-1.43,0.48-1.43,1.51v15.82 c0,0.79-0.72,1.51-1.51,1.51H315.19z M339.36,340.78c3.82,0,6.52-3.74,6.52-7.63c0-4.05-2.62-7-6.52-7h-11.77 c-0.95,0-1.35,0.4-1.35,1.35v11.92c0,0.95,0.4,1.35,1.35,1.35H339.36z" class="st3"/></g><path id="BG" d="M392,286H108c-2.2,0-4-1.8-4-4V124c0-11,9-20,20-20h252c11,0,20,9,20,20v158 C396,284.2,394.2,286,392,286z" class="st3"/><path id="_x2014__2_" d="M309,169.56H191c-1.65,0-3-1.35-3-3v-26c0-1.65,1.35-3,3-3h118c1.65,0,3,1.35,3,3v26 C312,168.21,310.65,169.56,309,169.56z" class="st2"/><path id="_x7C__1_" d="M264.73,253.56h-26c-1.65,0-3-1.35-3-3v-110c0-1.65,1.35-3,3-3h26c1.65,0,3,1.35,3,3v110 C267.73,252.21,266.38,253.56,264.73,253.56z" class="st2"/></g></svg>