<?xml version="1.0" encoding="UTF-8" standalone="no"?>
<!DOCTYPE svg PUBLIC "-//W3C//DTD SVG 1.1//EN" "http://www.w3.org/Graphics/SVG/1.1/DTD/svg11.dtd">
<svg width="100%" height="100%" viewBox="0 0 400 400" version="1.1" xmlns="http://www.w3.org/2000/svg" xmlns:xlink="http://www.w3.org/1999/xlink" xml:space="preserve" xmlns:serif="http://www.serif.com/" style="fill-rule:evenodd;clip-rule:evenodd;stroke-linecap:round;stroke-linejoin:round;stroke-miterlimit:1.5;">
    <g transform="matrix(1,0,0,1,2,2.84217e-14)">
        <g transform="matrix(1,0,0,1,-688.81,-120)">
            <g id="Layer1">
                <path d="M720.533,224L886.81,128L1053.09,224L1053.09,416L886.81,512L720.533,416L720.533,224Z" style="fill:url(#_Linear1);"/>
            </g>
        </g>
        <g transform="matrix(1,0,0,1,-356.256,-120)">
            <g transform="matrix(1,0,0,1,-55.4256,96)">
                <path d="M443.405,128L498.831,160L443.405,192L443.405,128Z" style="fill:none;stroke:white;stroke-width:4px;"/>
            </g>
            <g transform="matrix(1,0,0,1,-55.4256,224)">
                <path d="M443.405,128L498.831,160L443.405,192L443.405,128Z" style="fill:none;stroke:white;stroke-width:4px;"/>
            </g>
            <g transform="matrix(1,0,0,1,-3.76144e-13,256)">
                <path d="M443.405,128L498.831,160L443.405,192L443.405,128Z" style="fill:none;stroke:white;stroke-width:4px;"/>
            </g>
            <g transform="matrix(1,0,0,1,55.4256,288)">
                <path d="M443.405,128L498.831,160L443.405,192L443.405,128Z" style="fill:none;stroke:white;stroke-width:4px;"/>
            </g>
            <g transform="matrix(1,0,0,1,110.851,320)">
                <path d="M443.405,128L498.831,160L443.405,192L443.405,128Z" style="fill:none;stroke:white;stroke-width:4px;"/>
            </g>
            <g transform="matrix(1,0,0,1,166.277,288)">
                <path d="M443.405,128L498.831,160L443.405,192L443.405,128Z" style="fill:none;stroke:white;stroke-width:4px;"/>
            </g>
            <g transform="matrix(1,0,0,1,221.703,256)">
                <path d="M443.405,128L498.831,160L443.405,192L443.405,128Z" style="fill:none;stroke:white;stroke-width:4px;"/>
            </g>
            <g transform="matrix(1,0,0,1,221.703,192)">
                <path d="M443.405,128L498.831,160L443.405,192L443.405,128Z" style="fill:none;stroke:white;stroke-width:4px;"/>
            </g>
            <g transform="matrix(1,0,0,1,221.703,128)">
                <path d="M443.405,128L498.831,160L443.405,192L443.405,128Z" style="fill:none;stroke:white;stroke-width:4px;"/>
            </g>
            <g transform="matrix(1,0,0,1,221.703,64)">
                <path d="M443.405,128L498.831,160L443.405,192L443.405,128Z" style="fill:none;stroke:white;stroke-width:4px;"/>
            </g>
            <g transform="matrix(1,0,0,1,166.277,32)">
                <path d="M443.405,128L498.831,160L443.405,192L443.405,128Z" style="fill:none;stroke:white;stroke-width:4px;"/>
            </g>
            <g transform="matrix(1,0,0,1,110.851,1.06581e-13)">
                <path d="M443.405,128L498.831,160L443.405,192L443.405,128Z" style="fill:none;stroke:white;stroke-width:4px;"/>
            </g>
            <g transform="matrix(1,0,0,1,55.4256,32)">
                <path d="M443.405,128L498.831,160L443.405,192L443.405,128Z" style="fill:none;stroke:white;stroke-width:4px;"/>
            </g>
            <g transform="matrix(1,0,0,1,110.851,64)">
                <path d="M443.405,128L498.831,160L443.405,192L443.405,128Z" style="fill:none;stroke:white;stroke-width:4px;"/>
            </g>
            <g transform="matrix(1,0,0,1,166.277,96)">
                <path d="M443.405,128L498.831,160L443.405,192L443.405,128Z" style="fill:none;stroke:white;stroke-width:4px;"/>
            </g>
            <g transform="matrix(1,0,0,1,166.277,160)">
                <path d="M443.405,128L498.831,160L443.405,192L443.405,128Z" style="fill:none;stroke:white;stroke-width:4px;"/>
            </g>
            <g transform="matrix(1,0,0,1,-7.76623e-12,128)">
                <path d="M443.405,128L498.831,160L443.405,192L443.405,128Z" style="fill:none;stroke:white;stroke-width:4px;"/>
            </g>
            <g transform="matrix(1,0,0,1,3.56692e-12,192)">
                <path d="M443.405,128L498.831,160L443.405,192L443.405,128Z" style="fill:none;stroke:white;stroke-width:4px;"/>
            </g>
            <g transform="matrix(1,0,0,1,110.851,192)">
                <path d="M443.405,128L498.831,160L443.405,192L443.405,128Z" style="fill:none;stroke:white;stroke-width:4px;"/>
            </g>
            <g transform="matrix(1,0,0,1,-1.03739e-12,64)">
                <path d="M443.405,128L498.831,160L443.405,192L443.405,128Z" style="fill:none;stroke:white;stroke-width:4px;"/>
            </g>
            <g transform="matrix(1,0,0,1,-55.4256,160)">
                <path d="M443.405,128L498.831,160L443.405,192L443.405,128Z" style="fill:none;stroke:white;stroke-width:4px;"/>
            </g>
            <path d="M554.256,128L554.256,192L498.831,160L554.256,128Z" style="fill:none;stroke:white;stroke-width:4px;"/>
            <g transform="matrix(1,0,0,1,-55.4256,32)">
                <path d="M554.256,128L554.256,192L498.831,160L554.256,128Z" style="fill:none;stroke:white;stroke-width:4px;"/>
            </g>
            <g transform="matrix(1,0,0,1,-110.851,64)">
                <path d="M554.256,128L554.256,192L498.831,160L554.256,128Z" style="fill:none;stroke:white;stroke-width:4px;"/>
            </g>
            <g transform="matrix(1,0,0,1,-110.851,128)">
                <path d="M554.256,128L554.256,192L498.831,160L554.256,128Z" style="fill:none;stroke:white;stroke-width:4px;"/>
            </g>
            <g transform="matrix(1,0,0,1,-110.851,192)">
                <path d="M554.256,128L554.256,192L498.831,160L554.256,128Z" style="fill:none;stroke:white;stroke-width:4px;"/>
            </g>
            <g transform="matrix(1,0,0,1,-110.851,256)">
                <path d="M554.256,128L554.256,192L498.831,160L554.256,128Z" style="fill:none;stroke:white;stroke-width:4px;"/>
            </g>
            <g transform="matrix(1,0,0,1,-55.4256,288)">
                <path d="M554.256,128L554.256,192L498.831,160L554.256,128Z" style="fill:none;stroke:white;stroke-width:4px;"/>
            </g>
            <g transform="matrix(1,0,0,1,3.69482e-13,320)">
                <path d="M554.256,128L554.256,192L498.831,160L554.256,128Z" style="fill:none;stroke:white;stroke-width:4px;"/>
            </g>
            <g transform="matrix(1,0,0,1,55.4256,288)">
                <path d="M554.256,128L554.256,192L498.831,160L554.256,128Z" style="fill:none;stroke:white;stroke-width:4px;"/>
            </g>
            <g transform="matrix(1,0,0,1,110.851,256)">
                <path d="M554.256,128L554.256,192L498.831,160L554.256,128Z" style="fill:none;stroke:white;stroke-width:4px;"/>
            </g>
            <g transform="matrix(1,0,0,1,166.277,224)">
                <path d="M554.256,128L554.256,192L498.831,160L554.256,128Z" style="fill:none;stroke:white;stroke-width:4px;"/>
            </g>
            <g transform="matrix(1,0,0,1,166.277,160)">
                <path d="M554.256,128L554.256,192L498.831,160L554.256,128Z" style="fill:none;stroke:white;stroke-width:4px;"/>
            </g>
            <g transform="matrix(1,0,0,1,166.277,96)">
                <path d="M554.256,128L554.256,192L498.831,160L554.256,128Z" style="fill:none;stroke:white;stroke-width:4px;"/>
            </g>
            <g transform="matrix(1,0,0,1,110.851,128)">
                <path d="M554.256,128L554.256,192L498.831,160L554.256,128Z" style="fill:none;stroke:white;stroke-width:4px;"/>
            </g>
            <g transform="matrix(1,0,0,1,110.851,64)">
                <path d="M554.256,128L554.256,192L498.831,160L554.256,128Z" style="fill:none;stroke:white;stroke-width:4px;"/>
            </g>
            <g transform="matrix(1,0,0,1,55.4256,32)">
                <path d="M554.256,128L554.256,192L498.831,160L554.256,128Z" style="fill:none;stroke:white;stroke-width:4px;"/>
            </g>
            <g transform="matrix(1,0,0,1,55.4256,96)">
                <path d="M554.256,128L554.256,192L498.831,160L554.256,128Z" style="fill:none;stroke:white;stroke-width:4px;"/>
            </g>
            <g transform="matrix(1,0,0,1,55.4256,160)">
                <path d="M554.256,128L554.256,192L498.831,160L554.256,128Z" style="fill:none;stroke:white;stroke-width:4px;"/>
            </g>
            <g transform="matrix(1,0,0,1,-55.4256,224)">
                <path d="M554.256,128L554.256,192L498.831,160L554.256,128Z" style="fill:none;stroke:white;stroke-width:4px;"/>
            </g>
            <g transform="matrix(1,0,0,1,-55.4256,96)">
                <path d="M554.256,128L554.256,192L498.831,160L554.256,128Z" style="fill:none;stroke:white;stroke-width:4px;"/>
            </g>
            <g transform="matrix(1,0,0,1,110.851,192)">
                <path d="M554.256,128L554.256,192L498.831,160L554.256,128Z" style="fill:none;stroke:white;stroke-width:4px;"/>
            </g>
        </g>
        <g transform="matrix(1,0,0,1,-356.256,-120)">
            <g transform="matrix(1,0,0,1,110.851,128)">
                <path d="M443.405,128L498.831,160L443.405,192L443.405,128Z" style="fill:white;stroke:white;stroke-width:4px;"/>
            </g>
            <g transform="matrix(1,0,0,1,55.4256,96)">
                <path d="M443.405,128L498.831,160L443.405,192L443.405,128Z" style="fill:white;stroke:white;stroke-width:4px;"/>
            </g>
            <g transform="matrix(1,0,0,1,55.4256,160)">
                <path d="M443.405,128L498.831,160L443.405,192L443.405,128Z" style="fill:white;stroke:white;stroke-width:4px;"/>
            </g>
            <g transform="matrix(1,0,0,1,55.4256,224)">
                <path d="M443.405,128L498.831,160L443.405,192L443.405,128Z" style="fill:white;stroke:white;stroke-width:4px;"/>
            </g>
            <g transform="matrix(1,0,0,1,166.277,224)">
                <path d="M443.405,128L498.831,160L443.405,192L443.405,128Z" style="fill:white;stroke:white;stroke-width:4px;"/>
            </g>
            <g transform="matrix(1,0,0,1,110.851,256)">
                <path d="M443.405,128L498.831,160L443.405,192L443.405,128Z" style="fill:white;stroke:white;stroke-width:4px;"/>
            </g>
            <g transform="matrix(1,0,0,1,-1.98952e-13,64)">
                <path d="M554.256,128L554.256,192L498.831,160L554.256,128Z" style="fill:white;stroke:white;stroke-width:4px;"/>
            </g>
            <g transform="matrix(1,0,0,1,55.4256,224)">
                <path d="M554.256,128L554.256,192L498.831,160L554.256,128Z" style="fill:white;stroke:white;stroke-width:4px;"/>
            </g>
            <g transform="matrix(1,0,0,1,-55.4256,160)">
                <path d="M554.256,128L554.256,192L498.831,160L554.256,128Z" style="fill:white;stroke:white;stroke-width:4px;"/>
            </g>
            <g transform="matrix(1,0,0,1,4.83169e-13,128)">
                <path d="M554.256,128L554.256,192L498.831,160L554.256,128Z" style="fill:white;stroke:white;stroke-width:4px;"/>
            </g>
            <g transform="matrix(1,0,0,1,-5.40012e-13,192)">
                <path d="M554.256,128L554.256,192L498.831,160L554.256,128Z" style="fill:white;stroke:white;stroke-width:4px;"/>
            </g>
            <g transform="matrix(1,0,0,1,-2.23821e-12,256)">
                <path d="M554.256,128L554.256,192L498.831,160L554.256,128Z" style="fill:white;stroke:white;stroke-width:4px;"/>
            </g>
        </g>
    </g>
    <defs>
        <linearGradient id="_Linear1" x1="0" y1="0" x2="1" y2="0" gradientUnits="userSpaceOnUse" gradientTransform="matrix(2.35132e-14,-384,384,2.35132e-14,886.81,512)"><stop offset="0" style="stop-color:rgb(178,50,46);stop-opacity:1"/><stop offset="1" style="stop-color:rgb(214,56,50);stop-opacity:1"/></linearGradient>
    </defs>
</svg>
