<svg version="1.1" id="Laag_1" xmlns="http://www.w3.org/2000/svg" xmlns:xlink="http://www.w3.org/1999/xlink" x="0px" y="0px"
	 viewBox="0 0 500 500" style="enable-background:new 0 0 500 500;" xml:space="preserve">
<style type="text/css">
	.st0{fill:#00D1B2;}
	.st1{fill:#FFFFFF;}
	.st2{opacity:0.8;fill:#FFFFFF;}
</style>
<rect x="-1" y="-2" class="st0" width="500" height="500"/>
<path class="st1" d="M408.2,351.6l-1.2,3.2l-8.8,24.2l-7.9-15.6l2.5-1.3l4.9,9.9l6.6-18.4l1.1-3.2
	C406.6,350.8,407.4,351.2,408.2,351.6z"/>
<path class="st1" d="M414.5,357.2c-1.7-2.3-3.8-4.2-6.2-5.6c-0.8-0.5-1.7-0.9-2.6-1.2c-1.2-0.5-2.5-0.8-3.8-1
	c-5.1-0.9-10.2,0.4-14.4,3.4c-4.2,3-6.9,7.5-7.8,12.6c-0.8,5.1,0.4,10.2,3.4,14.4c3,4.2,7.5,6.9,12.6,7.8c1,0.2,2.1,0.3,3.2,0.3
	c4,0,7.9-1.3,11.2-3.7c4.2-3,7-7.5,7.8-12.6C418.7,366.5,417.5,361.4,414.5,357.2z M414.5,371c-0.7,4.2-3,7.9-6.4,10.4
	c-3.5,2.5-7.7,3.5-11.9,2.8c-4.2-0.7-7.9-3-10.4-6.4c-2.5-3.4-3.5-7.7-2.8-11.9c0.7-4.2,3-7.9,6.4-10.4c2.8-2,6-3,9.3-3
	c0.9,0,1.7,0.1,2.6,0.2c1.1,0.2,2.2,0.5,3.2,0.9c0.9,0.3,1.7,0.7,2.5,1.2c1.8,1.1,3.4,2.6,4.7,4.3
	C414.2,362.6,415.2,366.8,414.5,371z"/>
<polygon class="st1" points="420.4,119 353.7,391.3 286.6,391.3 247.2,249.7 300.9,249.7 319.7,313.7 361.4,119 "/>
<polygon class="st2" points="228.3,119 174.3,313.7 132.7,119 73.7,119 140.4,391.3 207.1,391.3 280.6,119 "/>
</svg>